<?xml version="1.0" standalone="no"?><!DOCTYPE svg PUBLIC "-//W3C//DTD SVG 1.1//EN" "http://www.w3.org/Graphics/SVG/1.1/DTD/svg11.dtd" ><svg xmlns="http://www.w3.org/2000/svg"><metadata></metadata><defs><font id="QXyingbixing" horiz-adv-x="269"><font-face font-family="QXyingbixing" font-weight="400" font-stretch="normal" units-per-em="256" panose-1="2 1 6 0 4 1 1 1 1 1" ascent="220" descent="-60" x-height="1" bbox="-35 -71 260 217" underline-thickness="12" underline-position="-48" unicode-range="U+00b7-ff1b" /><missing-glyph horiz-adv-x="256" d="M-22 17 q3 0 5.5 -2.5 q2.5 -2.5 2.5 -6.5 q0 -4 -4 -8 q-4 -4 -9 -4 q-4 0 -6 2.5 q-2 2.5 -2 5.5 q0 5 4 9 q4 4 9 4 ZM-8 26 l-4 2 q19 26 46 65 q29 43 36 43 q3 0 4.5 -1.5 q1.5 -1.5 1.5 -4.5 q0 -6 -34 -44 q-30 -36 -50 -60 Z" /><glyph glyph-name="" unicode="·" d="M26 69 q3 0 5.5 -3 q2.5 -3 2.5 -6 q0 -4 -2.5 -6.5 q-2.5 -2.5 -5.5 -2.5 q-4 0 -6.5 2.5 q-2.5 2.5 -2.5 6.5 q0 3 2.5 6 q2.5 3 6.5 3 Z" /><glyph glyph-name="" unicode="&#xff01;" d="M68.5 33.5 q7.5 -3.5 8.5 -12 q1 -8.5 -7 -14 q-8 -5.5 -17 -0.5 q-9 5 -7.5 14 q1.5 9 8.5 12.5 q7 3.5 14.5 0 ZM64 58 l-6 0 q-8 104 -8 113 q0 9 5.5 11 q5.5 2 11 0 q5.5 -2 5.5 -13.5 q0 -11.5 -8 -110.5 Z" /><glyph glyph-name="" unicode="&#xff0c;" d="M51 13 q-8 -5 -12.5 -4 q-4.5 1 -7.5 4.5 q-3 3.5 -3 8 q0 4.5 3 8 q3 3.5 7.5 5 q4.5 1.5 10 0 q5.5 -1.5 10.5 -8.5 q5 -7 3.5 -21.5 q-1.5 -14.5 -14 -25.5 q-12.5 -11 -15.5 -11 q-3 0 -3 2.5 q0 2.5 5.5 6.5 q5.5 4 10.5 11.5 q5 7.5 5 24.5 Z" /><glyph glyph-name="" unicode="&#xff1a;" d="M34.5 -4 q-8.5 4 -7.5 14 q1 10 8.5 13 q7.5 3 15 -0.5 q7.5 -3.5 8.5 -12 q1 -8.5 -7.5 -13.5 q-8.5 -5 -17 -1 ZM35.5 115.5 q7.5 2.5 14 -0.5 q6.5 -3 8.5 -11.5 q2 -8.5 -7 -14 q-9 -5.5 -17.5 -0.5 q-8.5 5 -7 14.5 q1.5 9.5 9 12 Z" /><glyph glyph-name="" unicode="&#xff1b;" d="M48 -11.5 q5 7.5 5 16.5 q0 9 -4 6.5 q-4 -2.5 -9.5 -2.5 q-5.5 0 -8 4 q-2.5 4 -2.5 8.5 q0 4.5 3 7.5 q3 3 7 4.5 q4 1.5 10 0.5 q6 -1 11 -8 q5 -7 3 -21.5 q-2 -14.5 -13.5 -25.5 q-11.5 -11 -14.5 -11 q-3 0 -3 2.5 q0 2.5 5.5 6.5 q5.5 4 10.5 11.5 ZM37.5 125.5 q7.5 2.5 14.5 0 q7 -2.5 7.5 -12.5 q0.5 -10 -8 -14 q-8.5 -4 -16 0.5 q-7.5 4.5 -6.5 14 q1 9.5 8.5 12 Z" /><glyph glyph-name="" unicode="&#x3002;" d="M32.5 26 q4.5 6 12 8.5 q7.5 2.5 15 0 q7.5 -2.5 12 -10 q4.5 -7.5 3.5 -15 q-1 -7.5 -7.5 -12.5 q-6.5 -5 -15 -5 q-8.5 0 -15.5 5.5 q-7 5.5 -8 14 q-1 8.5 3.5 14.5 ZM59.5 26 q-6.5 4 -13.5 1 q-7 -3 -8 -11.5 q-1 -8.5 6 -13 q7 -4.5 15 -1.5 q8 3 7.5 12 q-0.5 9 -7 13 Z" /><glyph glyph-name="" unicode="&#x4e00;" d="M194 108 q14 -6 19 -16 l0 -2 l-6 -6 l-2 0 l-3 2 l-25 -6 l-2 2 l0 4 l4 6 l-2 0 q-12 0 -108 -30 q-26 4 -26 12 l0 2 l24 0 q65 18 127 32 Z" /><glyph glyph-name="" unicode="&#x4e8c;" d="M104 139 l24 -4 q8 4 22 4 l6 0 l12 -10 q0 -7 -24 -9 l-26 -10 l0 4 l10 11 q-24 7 -24 12 l0 2 ZM198 74 q22 -9 24 -17 l0 -5 l-8 -6 l-28 15 l-28 0 q-18 0 -106 -30 l-10 0 q-8 4 -8 13 l2 0 l14 -2 q34 15 86 25 l0 -2 q6 4 62 9 Z" /><glyph glyph-name="" unicode="&#x5341;" d="M126 156 q22 0 22 -38 l-2 -19 l6 -2 l46 11 q18 0 28 -20 l-6 -4 l-42 9 q-32 -6 -32 -17 l-6 -51 l2 -6 l-6 -5 q-6 2 -6 13 l0 36 l2 2 l-4 15 l-76 -23 q-12 0 -22 12 l2 3 l2 0 l18 -3 l78 24 l4 29 q0 18 -16 28 l8 6 Z" /><glyph glyph-name="" unicode="&#x4e01;" d="M200 167 q20 -6 20 -17 l-8 -2 l-14 6 l-4 0 q-40 -4 -62 -11 l0 -4 q14 -14 14 -42 l0 -2 q0 -57 -36 -92 l-6 5 q28 47 30 80 l-2 9 l2 0 l-2 2 l0 17 l-6 17 l-2 -2 l-2 0 l-6 6 l-64 -21 q-16 7 -16 10 l0 3 l4 0 l18 -3 q20 17 116 36 l26 5 Z" /><glyph glyph-name="" unicode="&#x4e03;" d="M106 151 q26 0 26 -49 l-2 0 l2 -2 l0 -2 l-2 -3 l0 -2 l2 -12 l6 0 q38 23 52 23 l4 0 q12 -1 12 -6 l0 -5 l-2 -2 l0 -2 l-16 2 q-38 -11 -54 -29 q6 -24 20 -24 l22 2 q10 -4 12 -8 l0 -4 q0 -6 -24 -9 q-40 15 -40 40 l-4 0 q-46 -31 -54 -31 q-8 0 -16 12 l0 2 l12 -2 q22 8 60 32 q0 64 -20 74 l4 5 Z" /><glyph glyph-name="" unicode="&#x535c;" d="M88 179 l20 -10 l-4 -66 l2 -9 q26 9 44 9 q12 0 22 -15 l0 -4 l-4 -4 l-20 0 l-2 2 l-2 0 l2 2 l0 4 l-4 4 l-12 0 q-28 0 -28 -14 l-2 -34 l0 -36 l-2 -9 l2 -6 l-2 -2 l-4 0 q-4 0 -8 19 q4 5 10 114 l0 40 l-12 11 l4 4 Z" /><glyph glyph-name="" unicode="&#x516b;" d="M142 122 l4 0 q60 -11 60 -32 l2 -6 l0 -15 l-4 -4 l-2 0 q-16 19 -20 19 l-4 2 l0 6 l8 0 l2 -2 l2 0 l0 4 q0 4 -48 24 l0 4 ZM90 111 l4 0 l12 -10 l0 -7 q-44 -46 -56 -46 l-2 2 l0 2 q14 6 44 45 l-2 14 Z" /><glyph glyph-name="" unicode="&#x4eba;" d="M134 162 q10 -10 10 -18 l0 -2 q-26 -40 -62 -78 l22 -2 l2 2 l2 0 q54 0 114 -32 l6 -10 l0 -10 l-4 -4 q-8 0 -24 12 l4 6 l0 2 q-38 22 -128 32 l-44 -46 l-4 4 l0 4 q0 6 24 24 q62 66 80 98 l2 8 l-4 4 l0 2 l4 4 Z" /><glyph glyph-name="" unicode="&#x5165;" d="M87 124 l13 -2 l11 2 l59 -14 q42 -27 47 -41 l0 -6 l-7 -6 q-27 8 -27 14 l2 2 l0 3 l2 -3 l11 0 q-33 28 -66 34 q-10 0 -45 -29 q-19 -19 -46 -32 l-2 2 l0 4 l23 15 l42 40 l0 5 l-23 6 l0 2 q0 4 6 4 Z" /><glyph glyph-name="" unicode="&#x513f;" d="M109 156 l6 0 q12 0 15 -11 l-11 -72 q0 -44 15 -44 l17 -2 l0 -3 q53 0 53 20 l2 42 l4 0 l5 -62 q-19 -10 -39 -10 l-34 0 q-31 3 -31 32 l0 19 q0 43 6 80 l-8 5 l0 6 ZM66 109 l2 0 q12 0 17 -10 q0 -38 -36 -81 l-8 0 l0 9 q7 14 21 25 l13 40 l-9 13 l0 4 Z" /><glyph glyph-name="" unicode="&#x4e5d;" d="M124 144 q14 -2 14 -6 l0 -4 q-22 -22 -22 -64 l0 -4 q0 -24 30 -28 l22 0 q44 4 44 14 q4 26 6 26 l-2 2 l0 2 q2 12 6 12 l2 -2 l0 -34 l2 -16 q-14 -16 -80 -16 q-28 0 -40 36 l0 20 l8 42 q-26 0 -40 -52 l-32 -46 l-4 0 q-4 0 -4 6 q0 24 10 24 l6 -4 l0 4 q22 32 22 44 l-2 0 l-28 -14 q-12 6 -12 18 l0 2 l2 0 l8 -6 l2 0 q6 0 36 16 l0 2 l-8 12 l0 6 l4 4 q0 -6 16 -12 l6 0 l28 16 Z" /><glyph glyph-name="" unicode="&#x51e0;" d="M118 158 l4 0 l6 -6 l0 -4 q-16 -12 -22 -47 l4 -2 l0 -2 l-4 -9 q0 -48 46 -55 l24 0 q36 6 36 13 l0 29 l4 11 l4 0 l6 -51 q-12 -10 -66 -17 q-60 14 -60 47 l-4 34 l4 34 l-2 0 l-34 -11 l-2 2 l0 2 l52 28 l4 4 ZM50 135 l4 0 q0 -7 16 -30 q0 -32 -30 -93 l-6 0 l-4 4 l0 4 q0 6 20 34 l8 49 l-8 15 l0 17 Z" /><glyph glyph-name="" unicode="&#x4e86;" d="M158 166 q12 0 14 -8 l0 -4 l-26 -30 l0 -4 q10 0 10 -30 l0 -14 q0 -62 -20 -72 l-4 0 q-28 4 -28 8 q6 4 28 4 q14 18 14 50 l0 18 l2 2 l-8 26 l-2 -2 l-6 0 l-4 4 l0 2 q30 34 30 44 l-2 0 q-20 0 -60 -36 l-8 0 l-4 4 l0 12 l10 14 l4 -4 l-6 -6 l0 -8 q6 0 38 24 l18 6 l10 0 Z" /><glyph glyph-name="" unicode="&#x4e43;" d="M168 173 l2 0 l12 -11 l0 -2 q-12 -14 -16 -42 q24 0 38 -26 q-6 -42 -34 -91 l-8 -4 l-6 0 l-10 17 l0 2 l4 4 q4 -8 12 -8 q26 45 28 78 l0 4 q0 7 -34 15 l0 7 l10 42 l0 2 l-4 0 q-40 -14 -40 -25 l-6 2 q-36 -26 -46 -26 l-6 9 l0 8 l4 5 q0 -13 4 -13 q58 35 90 49 l6 4 ZM122 135 q20 -5 20 -9 l0 -6 q-8 -8 -32 -55 q-42 -58 -58 -58 l0 3 q58 58 74 114 l0 2 l-4 7 l0 2 Z" /><glyph glyph-name="" unicode="&#x5200;" d="M164 160 q24 -11 24 -21 q-8 -19 -10 -19 l2 -6 q-28 -93 -48 -104 q-4 0 -18 34 l4 0 q12 -13 18 -13 q20 35 38 106 q0 9 -16 13 l-36 -15 l4 -19 q-22 -47 -54 -77 l-4 5 q36 39 46 82 q-4 4 -26 7 l-2 2 l0 2 q0 4 20 4 q44 19 58 19 Z" /><glyph glyph-name="" unicode="&#x529b;" d="M118 164 l2 0 q15 -6 15 -34 l23 8 q21 -6 21 -14 q0 -42 -38 -112 l-9 -6 q-6 0 -12 38 l2 2 l2 0 l8 -16 l3 0 q14 12 31 80 l0 10 l-6 8 q-36 -10 -36 -28 q-22 -48 -42 -72 l-3 2 l-2 0 q20 34 34 74 q-32 2 -32 10 l0 2 l24 0 q17 0 19 28 l-9 12 l0 2 l5 6 Z" /><glyph glyph-name="" unicode="&#x53c8;" d="M116 158 l16 0 l6 -6 l0 -2 l-26 -68 q50 -54 80 -54 q30 -4 30 -10 l0 -2 l-4 -4 q-58 0 -86 38 l-28 24 q-26 -32 -56 -46 l-14 0 l0 6 q24 0 62 48 l0 4 l-2 0 q-18 14 -46 22 l0 2 l2 2 l8 0 l44 -18 q10 20 18 52 l-2 0 l-24 -14 q-16 4 -16 10 l0 4 l10 -2 q10 0 28 14 Z" /><glyph glyph-name="" unicode="&#x4e09;" d="M150 160 q12 0 15 -10 l0 -2 q0 -4 -32 -12 q-9 4 -29 4 l-2 2 q-7 0 -7 4 l2 2 l22 0 q14 0 31 12 ZM150 110 q13 0 13 -6 l0 -2 q0 -4 -32 -14 q-3 -8 -27 -18 l-2 2 l0 2 q0 4 6 4 l2 8 q-21 0 -21 6 l2 2 l2 0 l2 -2 q19 2 55 18 ZM199 62 l6 0 q14 0 24 -18 l0 -2 l-4 -4 l-30 2 l-2 0 l2 12 l-2 0 q-49 0 -151 -42 l-4 0 l-11 12 l3 2 l4 0 l2 -2 l95 32 l68 8 Z" /><glyph glyph-name="" unicode="&#x5e72;" d="M157 168 l4 0 q13 0 13 -6 l0 -4 q0 -4 -28 -8 l-2 -2 l-48 4 l0 4 l19 0 l42 12 ZM134 138 q15 0 21 -24 l34 8 l4 0 q23 -6 23 -12 l0 -2 q0 -4 -6 -4 l-28 4 l-4 0 q-27 0 -27 -16 l0 -14 q-2 -106 -15 -106 l-2 2 l0 2 l4 108 l0 12 l-6 0 q-9 0 -75 -28 l-4 0 q-13 2 -13 6 q1 2 30 10 q25 16 68 26 l0 12 l-9 10 l5 6 Z" /><glyph glyph-name="" unicode="&#x4e8e;" d="M151 168 l6 0 l9 -8 l-32 -10 q0 -4 -8 -4 q-30 2 -30 10 l0 2 l10 0 l3 -2 l42 12 ZM121 138 q15 -4 26 -22 l46 10 q11 0 17 -10 l-4 -6 l-25 4 q-36 -8 -36 -12 l4 -46 q-4 -76 -28 -76 l-23 -8 l0 6 q34 14 34 42 q3 0 4 36 l-4 42 q-7 0 -64 -24 l-8 0 l-13 10 l4 4 l7 -4 l72 28 l0 2 q0 8 -13 22 l2 2 l2 0 Z" /><glyph glyph-name="" unicode="&#x58eb;" d="M125 148 q12 0 17 -16 l-3 -10 l0 -26 l3 0 l29 6 l5 0 q19 -4 19 -8 l0 -2 l-3 -2 l0 -2 l-27 4 q-28 -4 -28 -16 l-2 -24 l7 -2 l17 4 q10 0 21 -12 l0 -2 l-7 -8 l-17 10 q-27 -6 -72 -20 q-12 4 -12 8 l2 2 l2 0 l8 -2 q41 12 41 32 l0 16 l-39 -14 l-14 0 l-11 10 l0 2 l2 0 l2 -2 l2 2 l5 0 l2 -2 q53 12 53 24 l4 24 q0 16 -15 16 l0 2 q0 6 9 8 Z" /><glyph glyph-name="" unicode="&#x571f;" d="M127 164 q14 0 21 -12 l-2 -52 l2 -2 l0 -2 l21 10 l6 -8 l0 -2 q-1 -4 -27 -12 l-4 -38 l53 0 q12 -8 17 -16 l0 -4 l-7 -6 q-24 6 -34 16 q-34 0 -91 -20 q-13 -8 -30 -10 q-10 2 -10 12 l2 2 l2 0 q0 -4 6 -4 q81 24 81 38 l0 18 l-2 0 l-28 -8 q-23 6 -23 12 l0 2 l19 -2 q19 0 36 14 l0 30 l2 24 q0 10 -15 10 l-2 2 l0 2 l7 6 Z" /><glyph glyph-name="" unicode="&#x5de5;" d="M167 142 l4 -4 l0 -4 q0 -3 -27 -13 l-15 -11 l0 -2 q8 -9 8 -17 l-8 -27 l2 0 l66 6 q12 0 23 -13 l0 -4 l-4 -4 q-12 0 -28 8 q-66 0 -142 -29 q-9 4 -10 8 l0 6 l10 -2 q70 18 70 28 q9 11 9 25 q0 15 -41 24 l-2 2 l0 4 l22 -2 l10 0 l47 21 l6 0 Z" /><glyph glyph-name="" unicode="&#x624d;" d="M150 191 q8 -4 10 -9 q0 -29 -6 -48 l2 -3 l2 0 q16 9 28 9 q0 -3 14 -11 l0 -4 l-4 -4 l-26 4 q-16 -4 -16 -13 l2 -6 l-2 -30 l0 -12 l2 -9 l-2 -8 l2 -9 q-2 -59 -14 -59 l-26 32 l0 4 l4 0 q12 -13 20 -13 l2 0 l4 55 l-4 2 l0 3 l4 6 l-4 2 l-4 0 q0 -11 -50 -57 l-4 4 q44 48 58 89 l-6 4 q-40 -25 -60 -25 q-12 0 -20 10 l0 3 l12 0 q28 0 78 29 l6 51 l-12 0 q0 13 10 13 Z" /><glyph glyph-name="" unicode="&#x4e0b;" d="M198 150 l2 -2 q0 -6 11 -6 l2 -2 l0 -6 q0 -4 -7 -4 l-17 6 l-10 0 q-45 -2 -45 -8 l9 -10 l-7 -66 l0 -16 l-2 -8 l2 -8 l0 -14 l-4 -6 l-2 0 q-9 0 -11 26 q4 0 7 8 l-2 2 q4 22 4 68 l0 12 q-4 6 -13 10 l-59 -24 q-13 4 -13 10 q0 2 36 10 q0 12 119 28 ZM181 104 q10 -14 10 -20 l-6 -4 q-7 0 -25 14 q-13 0 -13 4 l0 2 l34 4 Z" /><glyph glyph-name="" unicode="&#x5bf8;" d="M136 184 l8 0 q8 -4 8 -10 l-2 -44 l2 0 l38 8 q12 -2 12 -6 l0 -4 l-6 -4 l-18 0 l-28 -8 l0 -96 q-2 -34 -8 -34 l-22 16 q-34 16 -34 32 l4 0 q26 -28 48 -28 l2 2 l0 98 q0 4 -6 4 l-64 -24 q-14 4 -16 12 q22 0 84 28 l2 22 l0 28 q-8 0 -8 4 l4 4 ZM98 80 q18 -2 18 -12 q0 -16 -26 -24 l-4 6 q16 14 16 20 q-10 4 -10 6 l6 4 Z" /><glyph glyph-name="" unicode="&#x5927;" d="M118 166 q21 -8 21 -24 l0 -12 l-2 -36 q21 12 28 20 l19 2 l4 -6 l0 -2 q0 -4 -29 -12 q-26 -14 -26 -20 q-24 -72 -59 -72 l-5 4 q28 0 49 62 l-4 0 q-14 -12 -30 -12 q-25 6 -25 14 l0 2 l23 -4 q45 6 45 36 l2 32 q-5 14 -9 14 l-6 -6 l-2 2 l-2 0 q3 18 8 18 ZM150 52 l2 0 q45 -8 45 -40 l-2 -2 l-7 0 q-17 12 -17 26 l-21 14 l0 2 Z" /><glyph glyph-name="" unicode="&#x4e0e;" d="M125 177 q11 0 17 -11 l0 -10 l-2 -11 l2 -2 l2 0 q25 14 40 15 l4 -6 q0 -3 -40 -15 q-13 -8 -17 -30 l-2 -8 l0 -3 l2 0 q38 17 51 17 q21 0 30 -14 q0 -82 -34 -106 l-4 0 l-24 23 l2 2 l3 0 l23 -11 q21 19 21 89 q-8 7 -15 7 l-4 0 q-12 0 -57 -21 l-7 6 q15 46 15 76 l-10 5 l0 4 l4 4 ZM169 69 l5 -6 l-5 -7 l-8 2 q-22 0 -96 -27 l-10 0 l-11 10 l0 2 l15 -2 l2 0 q81 28 108 28 Z" /><glyph glyph-name="" unicode="&#x4e07;" d="M205 157 l13 -13 l-2 -2 l0 -2 l-36 2 l-6 0 l-45 -9 l0 -10 q0 -31 -55 -96 l-2 0 l0 3 q44 73 44 91 l0 2 l-4 4 l-4 0 q-41 -19 -59 -19 q-10 4 -11 9 l0 4 l11 -2 l6 0 q107 38 150 38 ZM138 114 q36 0 36 -17 q-11 -55 -39 -84 q-14 0 -14 17 l2 2 l-5 4 l0 15 l5 4 l8 -25 l2 0 q9 4 30 59 q0 13 -23 17 l-7 6 l2 2 l3 0 Z" /><glyph glyph-name="" unicode="&#x4e0a;" d="M112 146 l4 0 q18 0 19 -22 l3 -2 l6 0 l30 14 l2 2 l2 0 l10 -12 l0 -2 q0 -4 -46 -10 l-9 0 l0 -20 l-2 -4 l2 -2 l0 -6 l-2 -20 l2 -2 l77 4 l19 -18 l-7 -6 l-4 0 q-9 0 -32 14 l-25 -4 l-2 2 l-2 0 q-48 -8 -119 -28 q-11 4 -11 12 l2 2 l13 -2 l66 16 l10 2 l0 4 l-2 8 l7 14 l0 52 l-11 12 l0 2 Z" /><glyph glyph-name="" unicode="&#x5c0f;" d="M104 153 l4 0 q24 0 24 -30 l0 -30 l2 -8 q-2 -38 -6 -38 l2 -2 l0 -2 q-10 -26 -12 -26 l-2 0 q-12 6 -12 17 l-6 6 l0 3 l4 4 l12 -9 q4 0 10 58 l-2 6 l2 0 q-6 44 -16 44 l-4 5 l0 2 ZM162 93 l6 0 q36 0 36 -27 l-6 -4 l-4 0 l-18 12 l6 2 l0 3 q0 4 -20 10 l0 4 ZM62 91 l4 0 q6 0 6 -12 l2 0 l8 4 l2 -2 l2 0 q-20 -42 -26 -45 l-4 0 l-4 4 l0 7 q0 21 12 38 l-2 2 l0 4 Z" /><glyph glyph-name="" unicode="&#x53e3;" d="M158 137 l10 0 q16 -9 16 -13 l0 -4 q-8 -9 -24 -38 q20 -4 20 -17 l-6 -2 l-18 2 l-32 -11 q-10 3 -10 7 q30 11 46 44 l2 11 l0 6 l-28 -11 l-2 3 l-2 0 l-26 -5 l-2 2 l0 3 q42 12 56 23 ZM72 122 l2 0 q30 -19 30 -36 l8 -51 l-2 -2 l-4 0 q-10 0 -12 49 l2 2 q-4 0 -12 19 q-10 0 -12 19 Z" /><glyph glyph-name="" unicode="&#x5c71;" d="M108 157 l4 0 q23 -3 23 -10 l0 -57 l-2 -32 l42 2 l5 -7 q0 -4 -17 -4 q-53 -10 -85 -34 l-2 0 q-10 4 -11 9 l2 25 q0 8 -10 19 l0 2 l10 0 q13 -6 13 -25 l-2 -8 l2 0 q40 10 40 23 l2 19 l0 55 q0 11 -14 17 l0 6 ZM180 98 q16 -6 19 -13 l0 -4 q-6 -68 -15 -68 l-4 0 q-7 0 -9 30 q13 0 13 10 l2 24 l-11 17 l5 4 Z" /><glyph glyph-name="" unicode="&#x5343;" d="M137 174 q13 0 21 -12 q0 -4 -27 -10 q-7 -6 -38 -10 l-2 2 l0 2 q39 14 44 20 l-2 2 l0 2 l4 4 ZM125 132 q14 -6 19 -14 l0 -2 l-2 -2 l0 -2 l2 -2 l36 8 q21 0 34 -16 l-7 -6 l-4 0 q-7 6 -25 6 l-20 0 q-19 -2 -19 -8 l0 -26 l-4 -98 l-6 0 q-7 0 -7 16 l0 4 l5 6 l0 92 l-2 2 l0 2 q-8 0 -66 -28 l-11 0 l-6 8 l0 2 q0 4 21 6 q22 12 62 24 q0 10 4 10 l-9 12 l0 2 l5 4 Z" /><glyph glyph-name="" unicode="&#x5ddd;" d="M168 162 q24 -6 24 -12 l-2 -14 l2 -40 l0 -32 q-2 -56 -12 -56 l-4 14 l2 2 l0 2 l-2 6 l4 30 l-2 86 l-10 8 l0 6 ZM124 126 l2 0 l14 -8 l-2 -24 l0 -32 l-2 -2 l2 -2 l0 -10 l-4 -4 l-2 0 q-4 0 -6 12 l2 54 l-4 16 ZM76 124 q14 -20 14 -26 l0 -10 q-10 -54 -16 -54 l-4 0 l-6 6 l0 2 q16 32 16 48 l0 12 q-8 8 -8 18 l2 4 l2 0 Z" /><glyph glyph-name="" unicode="&#x4e2a;" d="M114 180 q16 -3 16 -9 q-20 -27 -20 -32 l4 0 q28 0 74 -44 q32 -12 36 -19 l-4 -5 q-42 9 -68 45 q-28 19 -46 19 q-14 -30 -60 -81 l-10 -2 l-4 5 l0 4 q22 0 70 87 l14 19 l-8 10 l2 3 l4 0 ZM114 103 l10 -8 l-2 -57 l0 -26 q0 -18 -4 -27 l2 -3 l0 -2 l-2 -10 l-2 0 l-6 4 l0 21 l-2 9 l2 8 l0 19 l-2 9 l2 2 l0 2 l-2 2 l2 21 l0 19 q0 7 -6 15 l2 2 l8 0 Z" /><glyph glyph-name="" unicode="&#x4e45;" d="M116 171 q13 0 19 -15 l0 -6 l-19 -30 l0 -2 l3 0 l33 8 l7 -8 q0 -9 -53 -68 l0 -2 l38 8 q59 -18 59 -40 l2 -15 l-2 -2 l-2 0 q-27 11 -27 15 q14 3 14 6 q-38 28 -48 28 q-50 0 -66 -28 l-17 -14 l-2 0 l-4 4 l0 4 q86 80 91 95 l-4 5 q-24 0 -60 -45 l-2 0 l-4 4 l0 5 q29 35 51 72 l0 4 q0 7 -7 15 l0 2 Z" /><glyph glyph-name="" unicode="&#x5915;" d="M138 170 l14 -16 l0 -2 q0 -8 -12 -26 l0 -2 l10 -2 q0 4 18 12 q16 -4 16 -10 l0 -4 l-42 -72 q-48 -58 -64 -68 l-2 0 l-4 4 q30 28 58 70 l0 4 l-24 20 q0 8 -6 12 l0 6 q38 40 40 54 l-6 10 l0 6 l4 4 ZM150 112 l-14 0 q-8 0 -28 -28 l26 -12 l4 0 q22 28 24 44 l-12 -4 Z" /><glyph glyph-name="" unicode="&#x51e1;" d="M128 155 q13 -4 13 -9 l0 -4 q-17 -21 -17 -42 l0 -4 q0 -52 19 -62 q10 -6 32 -6 l4 0 q21 2 21 8 l-9 62 l3 0 q4 0 19 -64 l2 -2 l0 -2 q0 -9 -34 -15 l-11 0 q-55 6 -55 45 q-17 14 -32 14 l-4 0 q-3 0 -23 -57 l-2 -2 l-5 0 l-8 11 l0 6 q3 21 8 21 q5 0 5 -8 q6 0 19 57 l-7 25 l0 7 l3 0 q4 0 4 -9 l2 -2 l2 0 q49 12 49 32 l2 0 ZM88 117 l-7 2 l-2 -2 l0 -2 q6 0 6 -9 l-4 -23 l9 0 l21 -2 l0 4 l2 0 l-2 2 l0 4 l4 36 l-2 0 l-25 -10 Z" /><glyph glyph-name="" unicode="&#x53ca;" d="M138 164 l2 0 l7 -6 q-15 -34 -15 -42 l0 -2 q9 0 13 -8 l0 -16 l-11 -34 l0 -2 q49 -36 85 -36 l10 -4 l3 -2 l0 -2 l-3 -2 l0 -2 q-60 0 -91 36 l-10 6 l-38 -22 l-17 -2 l-9 0 l0 8 l6 0 q21 0 45 26 q-23 18 -38 18 q-38 -58 -43 -60 l-6 0 l-4 4 q0 18 8 18 l7 -2 q48 66 59 102 l4 0 l7 -8 q0 -6 -26 -44 l0 -4 l40 -14 l11 26 q0 6 -17 12 l0 4 l15 44 l-2 0 q-17 0 -66 -34 l-11 0 l-6 6 l0 2 l4 4 l7 -6 q58 38 80 38 Z" /><glyph glyph-name="" unicode="&#x5e7f;" d="M118 174 q36 -6 36 -30 l-2 -2 l-6 0 q-4 0 -10 14 q-14 0 -22 16 l2 2 l2 0 ZM196 132 q8 -4 10 -8 l0 -2 q0 -4 -6 -4 l-24 4 l-72 -24 l0 -2 l8 -10 l0 -2 q-22 -84 -54 -108 l-2 0 l-6 4 q28 26 50 104 l-6 8 l-26 -2 q-8 4 -8 6 l0 4 l16 0 q102 32 120 32 Z" /><glyph glyph-name="" unicode="&#x4ea1;" d="M99 150 l36 0 q7 -2 7 -14 l-7 -4 l-6 0 q-5 6 -15 6 l-15 12 ZM176 112 l12 0 l13 -12 l0 -4 l-4 0 q-15 0 -15 4 l-40 -8 l-2 2 q0 -4 -24 -10 l-2 2 q0 -4 -15 -8 l0 -2 q7 -8 11 -42 l15 -4 l42 12 q9 -4 13 -12 l0 -2 q0 -4 -15 -4 l-4 -4 l-2 0 l-13 4 l-19 -4 l-17 0 q-12 0 -17 46 l-11 4 l-17 -4 l-4 0 l-6 8 l0 2 l10 -2 q37 16 108 36 l3 2 Z" /><glyph glyph-name="" unicode="&#x95e8;" d="M72 170 l2 0 q8 0 19 -13 q6 0 6 -6 q-2 -13 -6 -13 l-4 0 l-17 30 l0 2 ZM180 168 q4 0 19 -17 l-2 -26 l6 -61 l-2 -2 l0 -2 l2 -21 q0 -37 -17 -53 q-8 13 -8 21 l2 2 q-19 16 -19 25 l4 0 q13 -12 21 -12 l2 0 l2 17 l-4 106 q-2 12 -13 12 l-36 -8 q-15 5 -15 8 l0 2 l3 3 l0 2 l14 -5 l41 9 ZM67 119 l9 -17 q-3 -49 -7 -49 l3 -10 q-2 -34 -9 -34 l-2 0 q-6 0 -8 19 l12 47 l-2 2 l0 2 l2 8 l-2 2 l0 3 l2 2 l0 2 l-2 21 l2 2 l2 0 Z" /><glyph glyph-name="" unicode="&#x4e49;" d="M136 170 q14 -4 14 -18 q-14 -52 -26 -82 q28 -38 90 -54 l6 -8 l0 -8 l-6 0 q-4 6 -40 12 q-36 22 -56 48 q-48 -44 -78 -44 l-4 0 l0 4 q26 0 68 46 q-2 18 -48 42 l-2 2 l0 4 l8 0 l48 -34 l4 2 q14 20 22 72 l-4 14 l2 2 l2 0 ZM94 152 l6 -16 l10 2 l4 -2 l0 -2 q-4 -20 -10 -20 q-8 0 -14 28 l0 6 l4 4 Z" /><glyph glyph-name="" unicode="&#x4e4b;" d="M90 155 q33 -9 33 -17 l-6 -6 l-4 0 l-28 19 l5 4 ZM174 141 l2 -3 l0 -6 l-106 -70 l0 -2 l68 -21 q5 -4 47 -11 l34 4 q13 -4 13 -8 l0 -4 l-7 0 l-8 2 l-34 -7 q-18 0 -79 24 q-20 10 -50 15 l-26 -9 l-4 7 l0 2 q2 4 51 19 q38 25 74 55 l-2 0 l-85 -43 l-4 0 q-11 6 -11 17 l2 3 l5 0 l6 -9 l4 0 q90 45 110 45 Z" /><glyph glyph-name="" unicode="&#x5df2;" d="M112 160 q16 -2 16 -8 l0 -4 l-22 -30 l2 -2 l0 -10 q0 -4 -30 -14 q-14 -6 -14 -14 l-2 -20 l0 -10 q0 -20 32 -26 l2 2 l2 0 l6 -2 l2 2 l10 -2 q78 4 78 18 q2 50 10 52 l2 -2 l0 -40 l2 -26 q-12 -12 -84 -12 l-6 0 l-12 -2 q-58 0 -58 44 q8 66 14 66 q8 -4 8 -14 l-2 -8 l2 0 q18 0 38 48 l-16 -8 q-16 6 -16 10 l0 4 l4 0 l8 -4 q6 0 24 12 Z" /><glyph glyph-name="" unicode="&#x5df1;" d="M105 160 l2 0 q11 0 15 -8 l-17 -36 l2 -8 q0 -6 -30 -14 q-13 -6 -13 -36 l0 -16 q0 -16 28 -20 l2 0 q50 0 95 18 l3 6 l-3 2 l5 30 l0 16 l4 4 l4 -6 l0 -40 l2 -20 q-49 -22 -104 -22 l-2 2 l-2 0 l-2 -2 l-2 0 q-38 4 -38 24 l-2 12 l4 42 l-2 8 q4 6 23 8 q12 0 30 44 l0 2 l-2 0 l-15 -8 l-11 0 l-6 6 l4 4 q0 -4 6 -4 l22 12 Z" /><glyph glyph-name="" unicode="&#x536b;" d="M164 154 l2 0 l8 -8 q-14 -56 -30 -56 q-16 0 -16 -8 l-6 -30 l42 2 l32 0 q28 -6 28 -26 l-6 -4 q-16 4 -24 18 l-16 2 q-48 0 -132 -28 q-10 4 -14 10 l0 2 l2 2 l0 4 l14 -6 q66 12 66 36 l2 16 l0 12 l-6 30 l-8 0 q-10 0 -14 8 l2 2 l2 -2 l8 0 q38 24 64 24 ZM116 128 l14 -30 q26 0 26 28 q4 0 4 16 l-2 2 l-2 0 q-14 0 -40 -16 Z" /><glyph glyph-name="" unicode="&#x5b51;" d="M159 172 l8 -8 l0 -4 q-21 -26 -21 -37 l0 -4 l11 -6 l21 13 l-19 -19 l2 -47 l0 -11 q0 -27 -19 -51 l-4 0 l-19 26 l0 4 l4 0 l13 -11 l2 0 q6 0 12 30 l0 21 l-2 22 l-2 0 q-4 -1 -55 -58 l-4 0 q-9 4 -9 7 l0 6 l5 4 l8 -2 l55 57 l-13 9 l0 2 q0 15 20 42 l0 5 l-3 0 q-6 0 -31 -17 l-5 0 q-8 4 -8 12 l2 7 l2 0 l11 -7 q19 15 38 15 Z" /><glyph glyph-name="" unicode="&#x5b50;" d="M154 174 l4 0 l13 -10 l0 -2 q-32 -31 -32 -41 l15 -10 l47 4 l15 -13 l0 -6 l-5 0 l-31 6 l-19 0 l-5 -4 l0 -21 l2 -24 l-2 -2 l0 -2 l2 -2 q0 -41 -23 -61 l-2 0 l-30 29 l2 2 l3 0 l23 -12 l6 0 l9 25 l2 40 q-2 28 -7 28 q-41 -13 -86 -34 l-9 0 l-6 6 l0 5 l15 0 q16 10 84 34 l0 2 l-8 2 l-2 -2 l-2 0 q-9 3 -9 6 l0 2 q36 30 36 45 l0 2 q-11 0 -44 -28 l-7 0 l-4 5 q0 12 13 21 l2 -2 l0 -3 l-2 -2 l0 -2 l2 0 q29 19 40 19 Z" /><glyph glyph-name="" unicode="&#x4e5f;" d="M94 166 q10 0 10 -19 l0 -30 l-2 -15 l2 0 q29 23 36 23 l2 0 l7 -6 q-13 -42 -23 -64 q-22 3 -22 13 l-4 0 q0 -13 -8 -13 l-13 5 l-11 -17 q0 -26 47 -26 l17 0 q87 5 87 19 l6 38 l0 20 l4 0 l3 -17 l-3 -36 l3 -17 q-19 -11 -90 -20 l-2 3 l-2 0 l-2 -3 l-2 0 l-2 3 l-2 0 l-13 -3 q-42 0 -59 30 q-8 -13 -19 -13 q-10 4 -15 13 l2 2 l2 0 l11 -4 q5 0 21 19 l0 4 q0 17 -9 39 l7 4 q18 -20 25 -21 q13 11 13 31 l-2 2 l0 3 l2 2 l0 2 l-2 27 q-5 0 -5 -12 l-2 0 l2 -2 l0 -3 l-4 -4 l-2 7 q3 32 11 36 ZM104 85 q5 -13 13 -19 q10 0 17 44 l-4 0 q-26 -18 -26 -25 ZM68 74 l0 -4 l-2 0 l2 -6 l2 0 l5 4 l0 2 l-5 4 l-2 0 Z" /><glyph glyph-name="" unicode="&#x5973;" d="M126 170 q15 -3 15 -9 l0 -4 q0 -22 -17 -68 l2 0 q28 6 28 11 l0 2 l-5 15 l2 2 l5 0 q4 0 12 -15 l-2 -2 l0 -2 l13 -2 l25 4 q26 -8 26 -15 l0 -2 q0 -6 -9 -6 l-27 12 q-36 0 -36 -21 l-11 -15 l0 -2 l60 -32 l4 -19 l-2 -2 l-5 0 q-4 0 -21 21 l-46 21 q-31 -19 -47 -19 l0 7 q16 0 30 15 q0 4 -17 6 l-5 6 l3 13 l-3 0 q-33 -15 -61 -21 q-11 3 -11 6 l0 2 l2 2 l0 3 l3 -3 l4 0 q78 19 78 34 q17 43 17 64 l-8 8 l4 5 ZM111 66 l0 -4 q0 -5 23 -7 l15 26 l0 4 l-2 0 q-36 -7 -36 -19 Z" /><glyph glyph-name="" unicode="&#x98de;" d="M121 166 l4 0 l6 -6 l0 -6 q-19 -16 -19 -48 l4 -32 l5 0 l29 20 l-6 6 l0 2 l8 26 l-2 0 q-12 4 -12 8 l2 2 l8 0 q19 -4 19 -10 l0 -2 q-13 -14 -13 -20 l3 0 q14 -4 14 -14 q-37 -24 -50 -24 q0 -36 63 -48 l4 0 l3 6 l-9 44 l2 0 q5 0 19 -62 l-6 -4 q-49 0 -79 38 q-17 38 -17 70 l5 24 l-2 0 q-24 -12 -36 -12 l-5 0 q-10 4 -10 16 l2 0 l10 -6 l7 0 q18 0 49 32 Z" /><glyph glyph-name="" unicode="&#x5203;" d="M154 156 l6 0 q20 0 28 -15 l-18 -67 q-6 -31 -36 -60 q-8 0 -16 40 l2 3 l2 0 q4 0 12 -22 l2 0 q18 0 38 106 l-14 7 q-26 -6 -26 -24 q-14 -49 -44 -86 l-6 0 l0 2 q36 59 36 89 l-8 0 q-12 0 -14 8 l0 4 l2 0 l8 -4 q36 10 46 19 ZM78 99 l4 0 l0 -2 l-2 -2 l0 -2 l4 0 l12 2 l2 -2 l0 -2 q-14 -17 -24 -17 q-6 0 -6 8 q6 17 10 17 Z" /><glyph glyph-name="" unicode="&#x4e60;" d="M172 166 l12 -12 l0 -4 l-16 -130 l-12 -16 l-4 0 q-14 10 -24 32 l0 4 l6 0 l18 -20 q16 34 16 106 l4 20 l-8 10 l-48 -14 l-4 0 l-8 8 l0 4 q10 0 10 -4 q36 16 58 16 ZM100 124 q26 -2 26 -10 q-2 -18 -16 -18 l-2 4 l0 6 l2 6 l-2 0 q-8 0 -14 8 l6 4 ZM134 90 l0 -4 q-46 -44 -56 -44 q-6 8 -6 14 l0 4 l4 6 l8 -8 l50 32 Z" /><glyph glyph-name="" unicode="&#x9a6c;" d="M144 174 l4 0 q19 0 19 -10 l-19 -64 l-6 0 l-11 11 l4 4 l2 -2 l2 0 q7 0 13 49 l-2 2 l-2 0 q-19 -7 -36 -23 l6 -7 l-10 -53 l2 -2 l2 0 q49 19 70 21 l2 2 q28 -4 28 -12 q0 -63 -34 -94 q-15 0 -36 30 l4 4 q0 -4 25 -23 q16 6 30 64 l-2 2 l0 2 l2 8 q-2 9 -13 9 l-15 -4 l-2 2 l-2 0 q-7 0 -61 -26 l-2 0 l-7 7 l0 8 q5 45 9 45 l-2 2 l0 2 l2 6 l-2 2 l-5 9 q-8 0 -8 6 l0 2 l13 -2 l38 23 ZM148 64 q17 -2 17 -8 l-53 -15 q-40 -19 -55 -19 q-13 0 -13 15 l2 2 l2 0 q0 -5 11 -7 l89 32 Z" /><glyph glyph-name="" unicode="&#x4e61;" d="M129 179 l8 0 l7 -6 l0 -4 q0 -13 -49 -66 l2 0 q53 10 53 25 q9 0 15 26 l11 2 l4 -6 l0 -3 q-47 -58 -59 -67 l-11 -15 l0 -2 l32 17 l12 6 l-2 15 l5 4 l2 0 q10 -6 10 -13 q-20 -79 -63 -112 q-15 -19 -24 -19 l0 4 q23 19 55 70 l13 38 l-2 0 q-42 -29 -49 -29 l-4 4 l0 8 l32 41 l0 4 q-34 -13 -43 -13 l-2 0 l-6 6 q0 6 38 43 l17 25 l0 9 q-6 0 -6 4 l4 4 Z" /><glyph glyph-name="" unicode="&#x738b;" d="M165 154 l4 -6 l0 -3 q0 -3 -36 -14 l-2 -28 l15 0 l8 2 q9 -3 9 -6 l0 -4 q-6 -15 -40 -56 l0 -2 l15 5 l10 -3 l15 3 q14 -6 15 -11 l0 -4 q0 -4 -7 -4 l-21 6 q-22 0 -55 -13 q-10 3 -10 7 l0 8 q0 4 25 11 l8 10 l0 2 q-20 0 -31 17 l0 7 q0 4 19 6 l17 13 l-2 2 l0 2 l2 2 l-2 2 l0 9 l2 10 l-2 2 l-3 0 l-10 -2 q-30 2 -30 9 l2 2 l13 0 q33 0 72 19 ZM127 65 l2 0 q10 6 19 23 l0 7 q-19 0 -19 -17 l-2 -13 ZM101 69 l0 -2 l7 -2 l10 2 l0 15 l-17 -13 Z" /><glyph glyph-name="" unicode="&#x5f00;" d="M155 174 q12 -3 12 -7 l0 -6 q0 -4 -44 -17 q0 -5 -17 -11 l-2 2 l0 3 l6 6 l0 2 l-10 0 l-9 9 l2 2 l2 0 l7 -2 q32 6 53 19 ZM155 146 q8 0 10 -32 l7 0 q15 0 23 5 q13 0 19 -11 l-4 -6 l-21 4 l-26 -4 l0 -24 l2 -12 l-2 -3 l0 -2 l2 -2 q0 -52 -21 -93 l-6 0 q12 38 12 85 l3 0 l-3 6 l3 28 l-3 12 l-2 0 q-36 -4 -36 -21 q-10 -44 -15 -49 l-2 0 l-4 5 l4 25 l-2 2 l0 2 l4 17 l-6 2 l-36 -14 q-11 0 -13 6 l0 4 l2 2 l0 2 l3 -2 l4 0 q51 11 51 28 l0 6 l-7 11 l5 4 q4 0 12 -11 l-2 -10 l0 -7 l2 0 l9 7 l8 -2 q24 0 24 17 l0 10 l-5 13 l2 2 l5 0 Z" /><glyph glyph-name="" unicode="&#x592b;" d="M100 191 l2 0 l8 -9 l-2 -53 l2 0 l20 9 l8 -7 q0 -3 -30 -17 l-4 -29 l28 8 l0 2 l-2 2 l0 3 l2 2 l4 0 q20 -2 20 -9 l0 -2 l-6 -6 l-2 2 l-44 -15 l0 -2 q66 -74 94 -74 q26 -7 26 -11 l0 -2 q0 -4 -6 -4 q-52 0 -78 40 l-30 32 l-8 6 l-2 0 q0 -39 -56 -72 l-12 0 l0 2 q54 32 54 72 l2 2 l-2 0 l-28 -12 l-6 0 l-8 8 l0 4 l10 0 q38 11 38 32 l2 17 l-26 0 l-6 4 q34 8 34 13 l0 15 l4 32 q-8 0 -8 4 q2 13 8 13 Z" /><glyph glyph-name="" unicode="&#x5929;" d="M147 176 l4 -6 l0 -4 q0 -4 -48 -30 l8 -10 l0 -8 l-2 -10 l51 16 q13 -4 15 -10 q-4 -6 -45 -10 l-21 -10 q64 -84 104 -84 l15 -10 q0 -6 -7 -6 q-53 0 -95 66 q-17 20 -21 20 q0 -36 -49 -74 l-19 -6 l-4 0 l-5 4 q24 6 49 36 q15 28 15 42 l-2 0 q-30 -20 -40 -20 q-10 4 -11 10 l0 6 l4 0 l2 -2 q56 16 56 38 l0 4 q-4 0 -7 12 l-2 -2 l-6 0 l0 2 l17 18 q-25 0 -26 8 l0 6 l2 0 l13 -4 l2 0 q10 0 53 18 Z" /><glyph glyph-name="" unicode="&#x5143;" d="M110 168 l22 0 l4 -4 l0 -5 q0 -6 -22 -6 q0 4 -6 4 l-22 -2 l-2 2 l0 4 l26 7 ZM140 136 l6 0 l4 -4 q-30 -25 -112 -127 l-2 0 q-4 0 -4 6 q6 14 38 47 l40 48 l0 2 q-56 -38 -68 -38 q-10 4 -10 9 l0 2 l4 4 l6 -6 q6 0 98 57 ZM122 91 l2 0 l4 -4 l-6 -44 q0 -30 28 -30 q62 3 62 15 l2 17 l0 21 l4 4 l4 -6 l0 -15 l2 -8 l-2 -3 l2 -10 l0 -13 q0 -11 -74 -13 q-36 6 -36 28 l0 25 q2 36 8 36 Z" /><glyph glyph-name="" unicode="&#x65e0;" d="M140 172 l2 0 l6 -7 l0 -2 q0 -6 -16 -8 l-30 -24 l-4 0 l-4 5 l8 8 l0 4 l-8 0 l-16 5 l0 4 l12 0 q14 0 50 15 ZM100 129 l18 -10 l30 4 l4 -11 q-62 -18 -62 -42 q-32 -70 -58 -70 l-2 2 l0 7 q22 0 46 63 l-2 0 q-12 -8 -20 -8 l-2 0 q-4 1 -10 14 l6 9 q4 0 6 -9 l6 0 q34 13 34 45 l6 6 ZM106 110 l0 -4 l2 0 l4 4 l-6 0 ZM120 95 l6 -8 l-2 -51 q0 -21 34 -23 q56 0 56 19 l0 32 l4 4 q4 -8 4 -23 l0 -15 l4 -17 q-8 -9 -64 -15 q-46 9 -46 30 l-2 2 l0 21 q0 25 4 25 l-4 17 l2 2 l4 0 Z" /><glyph glyph-name="" unicode="&#x97e6;" d="M124 196 q8 0 8 -10 l2 0 l-2 -11 l0 -17 l19 4 l2 0 l5 -4 l0 -2 l-26 -26 l0 -4 q0 -3 15 -6 l0 -4 l-15 -22 l2 -2 l0 -2 l-2 -2 l0 -2 l2 -2 l2 0 l36 13 l5 0 q15 0 15 -15 q0 -41 -30 -51 q-13 1 -26 10 l-2 -2 l-2 0 l2 -2 l-2 -21 l0 -23 q-2 -36 -8 -36 l-2 2 l0 74 l-3 8 l3 7 l-3 10 l3 3 l-3 2 l-2 0 q-9 -3 -46 -43 q-6 0 -7 9 l55 70 l0 2 l-2 0 q-18 -13 -31 -13 l-3 0 l-4 4 l40 43 l0 4 l-2 0 q-21 -13 -27 -13 q-19 4 -19 11 l0 2 l6 0 l13 -2 q32 11 32 27 l0 19 l-5 7 l0 2 q0 4 7 4 ZM111 111 l0 -2 l8 7 l0 4 l-8 -9 ZM132 65 q7 -21 26 -21 q16 0 23 33 q-3 9 -6 9 l-3 0 q-40 -9 -40 -21 Z" /><glyph glyph-name="" unicode="&#x4e91;" d="M112 152 l20 -7 l20 4 l8 -6 l0 -2 q0 -4 -12 -9 l-8 5 l-2 -2 l-2 0 q-18 0 -30 14 l4 3 l2 0 ZM172 111 l4 0 l10 -8 q0 -5 -44 -15 q-6 -6 -14 -28 l-14 -19 l0 -2 l2 0 q34 13 44 13 l0 -4 q0 -5 -58 -28 l-2 0 l-6 6 q0 13 24 39 l4 10 l-2 2 q-30 -14 -42 -14 q-14 2 -14 6 l0 4 l12 -2 q14 0 52 21 l44 19 ZM168 69 q24 -9 24 -49 l-2 -2 l-4 0 q-6 0 -12 34 l-12 13 q0 4 6 4 Z" /><glyph glyph-name="" unicode="&#x6728;" d="M120 189 l2 0 q14 -10 14 -17 l-4 -45 l0 -15 q22 13 34 13 q8 -3 8 -6 l0 -5 q0 -4 -6 -4 l-14 2 q-26 -8 -26 -21 l-2 -6 l2 -2 l-2 -22 l0 -10 l26 0 q52 -9 52 -24 q4 0 4 -10 l-6 -4 q-10 0 -36 25 l-16 4 l-24 0 l6 -59 l-4 -2 l-6 0 q-34 22 -34 32 l0 6 l4 4 q8 -23 24 -23 l2 -2 l0 17 l-2 15 l2 0 q-2 14 -6 14 l-2 0 q-24 0 -34 -19 q-14 -15 -24 -15 l-4 5 l0 2 l16 8 q22 23 46 64 l-2 2 q-26 -14 -38 -17 q-18 8 -20 13 l2 2 l2 0 l18 -2 q48 19 48 27 l4 58 l-8 12 l4 5 ZM100 51 l14 0 l0 21 q-14 -10 -14 -21 Z" /><glyph glyph-name="" unicode="&#x4e94;" d="M145 156 l8 0 q7 -2 7 -13 l0 -4 q-14 -16 -24 -40 l2 0 l22 4 q17 -4 17 -13 q-8 -20 -28 -44 l0 -3 l8 3 l3 -3 l21 3 q26 0 36 -15 l0 -7 l-4 -4 l-3 0 q-10 0 -29 15 q-64 0 -134 -21 l-8 6 l0 2 l2 2 l0 3 l2 -3 l4 0 l41 11 l0 4 q0 17 14 21 l0 7 l-2 -2 l-2 0 q-13 4 -13 8 q0 4 22 7 q10 0 36 59 l-2 0 l-24 -11 l-6 0 q-12 0 -15 9 l2 2 l0 2 l17 -2 l30 17 ZM102 43 l0 -4 q41 0 58 45 l0 6 l-5 0 l0 2 q-40 -13 -40 -29 l-13 -20 Z" /><glyph glyph-name="" unicode="&#x4e0d;" d="M146 152 l2 0 l6 -6 l-2 -2 l4 -6 q-4 0 -31 -34 l2 -2 l0 -14 l-2 -22 l6 -2 l30 4 q19 -4 36 -24 l2 -12 l-4 -4 q-15 0 -28 24 l-11 6 l-25 -4 l-6 2 q-5 -26 -11 -26 l-9 10 l0 8 l11 12 l0 26 l-2 0 l-51 -68 l-2 0 l-4 4 l0 2 q0 26 53 84 q8 0 19 18 l-2 2 l-2 0 q-26 -20 -49 -20 l-4 0 q-12 0 -15 8 l0 8 l8 -6 l2 0 q24 0 75 28 q0 6 4 6 ZM99 90 l-6 -10 l0 -2 l8 10 l0 2 l-2 0 ZM80 60 l4 0 l7 12 l0 2 l-11 -14 Z" /><glyph glyph-name="" unicode="&#x592a;" d="M106 168 l4 0 l6 -7 l0 -61 l2 0 q10 13 34 13 l2 -2 l0 -5 q0 -5 -24 -10 q-8 -11 -16 -11 l0 -8 q8 0 48 -38 q12 -17 54 -24 l4 -6 l-2 -2 l0 -2 q-52 5 -56 21 q-44 42 -54 42 q0 -9 -10 -36 l2 0 q30 -4 30 -21 l0 -2 l-8 -7 l-10 15 l-16 11 l-2 0 q-26 -24 -44 -26 l-10 0 l-4 5 q60 16 60 59 l2 2 l0 2 l-2 0 l-20 -4 l-2 0 q-12 0 -16 11 l2 2 l0 2 l14 -2 q28 0 32 25 l0 43 l-6 8 l0 6 l6 7 Z" /><glyph glyph-name="" unicode="&#x5386;" d="M176 178 l4 0 l6 -8 l0 -6 l-4 -4 l-12 2 l-38 -14 l-2 0 q-24 2 -24 10 l2 2 l8 0 l8 -2 l52 20 ZM102 138 l2 0 l0 -6 q0 -6 8 -18 q0 -52 -58 -116 l-4 0 l0 6 q48 62 48 104 l-2 20 q2 10 6 10 ZM152 128 l4 0 q14 -4 14 -20 l10 2 l4 0 q12 0 22 -14 q-8 -60 -30 -88 l-16 -16 l-4 0 q-6 0 -16 38 l4 4 l12 -26 l2 0 q32 40 32 70 l-2 2 l2 10 l0 6 l-10 2 l-2 0 q-16 0 -28 -38 q-20 -38 -32 -44 l-2 2 l-2 0 q32 54 32 66 l-2 0 l-18 -4 l-2 0 l-4 4 l0 2 q0 4 14 4 q18 10 18 14 l0 14 l-4 6 l4 4 Z" /><glyph glyph-name="" unicode="&#x53cb;" d="M114 184 l5 0 q4 0 8 -12 l-4 -20 q15 -16 30 -16 l0 -6 q-4 -4 -34 -14 q-9 0 -19 -34 l2 0 q21 18 29 18 l7 0 q6 -2 6 -14 l0 -8 l-8 -34 q46 -46 89 -46 l4 -6 l0 -6 l-30 0 q-20 0 -70 48 l-2 0 q-36 -36 -63 -36 l-3 2 l0 2 q0 4 15 6 q20 6 43 36 q-24 14 -32 14 q-38 -72 -51 -72 q-9 4 -9 8 q36 28 49 72 q13 16 13 28 l-21 -6 q-17 8 -17 12 l0 2 l2 2 l0 2 l2 -2 l11 0 q40 0 44 46 l-2 24 q2 10 6 10 ZM121 142 l-4 -12 l2 -2 l2 0 l8 2 l0 4 l-8 8 ZM95 70 l26 -16 l2 0 q5 0 8 24 l0 6 q0 4 -6 4 l-30 -18 Z" /><glyph glyph-name="" unicode="&#x5339;" d="M198 150 q14 -6 14 -11 q0 -4 -6 -4 l-30 2 q-30 0 -114 -28 l-12 0 l-6 7 l0 4 l2 0 l2 -2 q76 21 134 30 l16 2 ZM160 131 q8 -4 8 -15 l0 -2 l-4 -17 l4 -5 l18 5 l6 -7 q-16 -16 -30 -17 l-4 5 l2 6 q-4 0 -4 6 l2 32 l-4 4 l6 5 ZM126 116 l10 -13 l0 -2 q-10 -40 -14 -40 l-2 0 l-4 4 l8 36 l-4 13 l2 2 l4 0 ZM84 105 q6 0 8 -17 l-2 -15 q0 -40 10 -40 q66 17 82 17 q18 -5 18 -11 l0 -6 l-6 0 q-14 0 -14 4 q-36 -4 -82 -17 q-18 0 -18 47 l0 21 l-2 15 l2 2 l4 0 Z" /><glyph glyph-name="" unicode="&#x8f66;" d="M126 192 q12 0 12 -14 l0 -4 l-6 -26 l2 0 q20 10 42 12 l4 -6 l0 -2 l-2 -2 l0 -2 l-6 2 q-54 -12 -54 -34 l-14 -24 l0 -2 q38 12 38 22 l-4 16 l2 2 l2 0 q10 -2 10 -18 l20 2 l2 -2 l0 -4 q-24 -20 -24 -30 l0 -12 l2 0 l42 10 q26 -6 26 -14 l-8 -6 l-32 6 l-4 0 q-14 0 -26 -10 q-2 -104 -14 -104 l-2 2 l0 2 l4 34 l0 16 l-2 20 l2 0 l-2 2 l0 26 l-90 -36 l-2 0 l-8 6 q0 4 20 6 q32 18 40 18 q18 12 42 18 l0 12 l-2 0 q-28 -18 -36 -18 l-2 0 l0 2 q42 28 42 32 l-2 2 l-4 0 l-38 -18 l-4 4 l0 4 l18 44 l-2 0 l-12 -2 q-16 2 -16 6 l0 4 l6 0 q38 0 38 22 l6 24 l-8 8 l4 4 Z" /><glyph glyph-name="" unicode="&#x5de8;" d="M144 164 q10 -4 10 -8 l0 -2 q0 -4 -26 -8 q-12 -10 -36 -10 q-12 2 -12 6 l2 2 l2 0 l10 -2 l34 14 q0 4 16 8 ZM68 122 l4 0 q6 -2 12 -18 q-4 -20 -4 -56 l-2 -6 q2 -26 8 -26 l2 0 q30 10 74 16 l8 -2 l8 2 l14 -14 l-6 -6 l-28 6 l-80 -12 q-8 6 -8 32 l-2 0 l2 14 l0 36 l2 14 l-8 16 l4 4 ZM138 114 q10 0 16 -10 l0 -2 l-16 -20 l0 -2 l4 -6 l0 -2 l-50 -22 l-2 2 l0 2 q40 24 48 50 l-2 0 q-30 -16 -36 -16 q-10 4 -10 8 l48 18 Z" /><glyph glyph-name="" unicode="&#x6208;" d="M94 178 l6 0 q6 0 8 -32 q2 0 10 -32 l2 0 l26 20 l4 0 l4 -4 l0 -2 l-32 -24 l0 -2 l14 -30 l2 0 q14 16 14 36 l4 0 l6 -6 q0 -16 -18 -42 q4 -12 38 -46 l4 0 l-4 34 l6 0 l14 -50 l-8 -6 q-10 0 -56 58 l-2 0 q-26 -24 -38 -32 l-2 0 l0 2 q36 36 36 42 l-16 32 l-2 0 l-40 -36 l-12 0 l-8 6 l0 4 l10 0 q12 0 48 40 q-16 60 -26 60 l0 2 l8 8 ZM160 164 q30 0 36 -14 l0 -4 l-4 -4 l-4 0 l-32 18 l0 2 l2 2 l2 0 Z" /><glyph glyph-name="" unicode="&#x6bd4;" d="M136 168 l5 0 q5 0 10 -24 l-2 -12 l0 -2 q0 -6 26 -14 l2 -2 l0 -2 q-32 -18 -32 -38 l0 -30 q0 -2 8 -6 q24 8 34 8 q9 0 13 -8 l0 -2 q0 -2 -55 -28 l-2 2 l0 2 l19 16 q-26 0 -26 18 l0 30 q-6 0 -6 4 l0 4 q11 10 11 34 l0 18 l-13 12 q4 20 8 20 ZM149 116 l0 -10 l2 0 l7 6 l0 2 l-9 2 ZM94 104 l11 0 l6 -6 q0 -4 -32 -8 l-8 -64 l2 0 q41 50 49 52 l2 0 l0 -4 l-51 -72 l-9 0 l-4 4 l0 18 l6 58 l-10 18 l0 2 l2 0 l17 -4 q11 0 19 6 Z" /><glyph glyph-name="" unicode="&#x5207;" d="M82 164 l4 0 q6 0 8 -16 l-2 -24 q6 0 18 -12 q12 0 12 -6 l-16 -8 q-18 -12 -18 -24 l0 -22 l2 -14 l2 0 q64 74 98 78 q32 -2 32 -10 l0 -6 q-24 -90 -46 -90 l-4 -4 l-2 0 q-8 0 -16 32 l-4 0 q-6 -16 -12 -16 q-4 0 -4 8 q16 24 32 62 l-2 0 q-28 -10 -72 -74 l-4 0 q-6 0 -8 24 l2 0 l-2 2 l0 10 l2 2 l-2 2 l0 18 l-6 0 q-22 -16 -36 -18 l-4 6 q0 2 24 10 q24 14 24 16 l2 62 q-10 0 -10 4 l0 2 l8 6 ZM92 116 l-2 -18 l2 0 q10 4 10 8 l-10 10 ZM160 54 l10 -36 q16 0 40 82 l0 4 l-2 0 l-18 4 q-8 0 -18 -34 l-2 -2 l-10 -18 Z" /><glyph glyph-name="" unicode="&#x74e6;" d="M130 169 l2 0 l6 -6 l0 -5 q-44 -39 -44 -65 l38 25 l2 0 l6 -6 q-10 -23 -10 -45 q0 -46 44 -46 l2 0 q10 0 20 6 l-2 2 l0 4 l-4 43 l2 0 q4 0 18 -51 l2 -2 q-10 -15 -40 -15 q-52 9 -52 40 l-2 0 l-54 -47 l-4 0 l-10 9 l0 6 q20 44 34 91 l20 37 l-38 -15 l-6 0 q-12 0 -16 8 l2 2 l0 2 l10 -2 l8 0 q42 15 66 30 ZM82 65 l4 0 l18 2 l14 -2 l0 11 l2 21 l-4 0 q-32 -19 -32 -23 l-2 -9 ZM80 57 q-14 -25 -14 -34 l0 -2 q14 4 42 31 q-10 5 -28 5 Z" /><glyph glyph-name="" unicode="&#x6b62;" d="M118 142 l2 0 q12 0 20 -12 l0 -22 l2 0 l26 10 l4 -6 l0 -2 q0 -4 -18 -6 l-2 -2 l-14 -8 l0 -32 l6 -2 l2 2 l42 0 q18 -10 18 -22 l-2 -2 l-8 0 l-36 12 q-28 0 -90 -22 l-4 0 q-12 0 -16 8 l0 2 l2 2 l0 2 l18 -2 q16 0 16 22 q-2 14 -12 24 l0 4 l4 4 q16 0 20 -26 l0 -18 q26 4 26 14 q4 16 4 42 q0 22 -14 32 l4 4 Z" /><glyph glyph-name="" unicode="&#x5c11;" d="M156 176 q12 -6 12 -17 l-8 -25 q6 0 18 -15 q18 -5 18 -11 l0 -2 q0 -6 -8 -6 q-20 10 -36 10 q-26 -99 -84 -146 l-6 0 l0 4 q8 2 38 45 q32 55 52 129 l2 9 l-2 12 l0 9 l4 4 ZM114 166 q10 -5 10 -9 q-6 -21 -6 -74 l2 -13 l-2 -2 l-4 0 l-14 13 l-2 0 l-24 -24 l-6 0 q-8 4 -8 15 l0 5 q0 19 18 19 l20 0 l8 -7 l2 0 l4 62 q0 5 -12 8 l0 2 l14 5 ZM158 132 l-2 -13 l2 -2 l2 0 l2 2 l0 8 l-4 5 ZM70 81 l0 -4 l4 -5 q12 13 16 13 l0 2 l-4 4 q-16 -5 -16 -10 Z" /><glyph glyph-name="" unicode="&#x65e5;" d="M146 155 q14 0 26 -17 l0 -6 l-2 -2 l2 -3 l0 -4 l-2 0 l2 -36 l0 -8 q0 -64 -10 -64 q-8 0 -22 28 l-6 4 l-38 -13 l-4 7 l2 63 l-10 15 l2 0 q20 -2 20 -21 l4 0 l28 8 l2 -2 l0 -6 l-22 -26 l-4 0 l0 5 l10 14 l-4 0 l-10 -2 l-6 2 l0 -2 l-2 -23 l0 -13 q0 -4 6 -4 l26 11 q20 -6 20 -17 l2 -9 l2 0 l2 11 l0 21 l2 19 l-2 6 l2 0 l-2 3 l0 4 l2 12 l-2 7 l2 0 q-2 30 -16 30 l-32 -11 l-18 0 l-4 4 l2 2 l0 2 l2 -2 l6 0 l44 13 Z" /><glyph glyph-name="" unicode="&#x4e2d;" d="M118 190 l4 0 q11 -6 11 -18 l0 -40 l-2 -2 l0 -2 l2 -2 q30 8 49 8 q23 -4 23 -10 l0 -2 l-34 -22 l0 -2 q13 -2 13 -6 l0 -2 l-36 -12 q-1 -4 -13 -8 l0 -28 l-4 -82 l-6 0 l-3 68 l3 0 l-3 2 l0 28 l-2 2 l0 2 q-31 -18 -40 -18 l-4 6 l2 2 l0 2 l-26 52 l5 6 l12 -16 l5 0 q11 0 48 26 l0 48 l3 2 q0 8 -9 8 l-2 2 l0 4 l4 4 ZM133 114 l0 -10 l2 -14 l4 0 l47 32 l-4 4 q-35 0 -49 -12 ZM82 86 l0 -4 l7 -22 q19 6 36 24 l-5 22 l-38 -20 Z" /><glyph glyph-name="" unicode="&#x5185;" d="M116 186 q9 0 17 -16 l-4 -42 l34 0 q30 -6 30 -24 l0 -14 l-2 -2 l2 -2 l0 -18 l-2 -2 l2 -2 l0 -6 l-2 -2 l2 -2 l0 -10 l-2 -2 l2 -2 l0 -10 q0 -26 -17 -46 l-2 0 q-7 2 -30 48 l0 6 l2 0 q8 -6 17 -26 l9 -8 q6 0 10 26 l0 68 q0 20 -40 24 q-19 0 -23 -32 l0 -2 l2 0 l2 2 q26 -4 27 -10 l0 -6 l-17 -24 l-6 0 l0 2 q11 16 11 24 l0 2 l-11 2 q-12 -2 -25 -28 l-2 0 q-5 0 -5 6 l19 52 l-2 2 l-2 0 l-19 -8 l-4 0 q-11 0 -13 8 l0 2 l11 0 q36 4 36 20 l4 24 q-2 12 -13 24 l4 4 ZM68 96 l12 -10 l-4 -38 l4 -14 l0 -20 l-4 -4 l-2 0 q-5 0 -8 32 l2 0 l-2 2 l0 4 l2 2 l-2 2 l2 10 l0 16 l-5 16 l3 2 l2 0 Z" /><glyph glyph-name="" unicode="&#x6c34;" d="M110 188 l2 0 l10 -11 q-2 -40 -6 -40 l2 -6 q42 36 48 36 q14 -2 14 -7 l0 -4 q-24 -33 -60 -66 l-4 -6 q74 -38 88 -38 q40 -2 40 -9 q0 -3 -20 -6 l-14 2 l-8 -2 q-14 0 -82 42 l-2 0 l-2 -2 l0 -2 l2 -51 l2 -6 q-6 -30 -10 -30 q-4 1 -28 43 l2 2 l2 0 l20 -21 l2 0 l0 51 q0 23 -6 23 l-10 0 q-30 -59 -32 -59 l-2 0 l-8 6 l24 63 l0 3 l-4 0 q-36 -26 -48 -26 l-10 11 l4 4 l12 -2 l54 32 l2 0 l8 -7 l-10 -23 l26 34 l0 2 l4 53 q0 6 -8 6 l0 5 l6 6 ZM116 112 l0 -13 l4 0 l18 19 l28 38 l-10 0 q-40 -29 -40 -44 ZM98 90 l0 -2 l8 0 l0 13 l-8 -11 Z" /><glyph glyph-name="" unicode="&#x89c1;" d="M118 173 q21 -13 22 -19 l-5 -19 l2 -2 l-2 -11 l2 -61 l-2 -2 l-8 0 q-15 15 -17 27 l2 2 l2 0 l13 -12 l0 78 q-4 9 -15 9 l-34 -11 l-6 0 l-5 4 l47 17 l4 0 ZM63 139 l2 0 q9 -3 13 -10 l-2 -30 l2 -26 l-2 0 l2 -6 q17 21 17 43 l-4 6 l0 8 l8 9 l4 0 l7 -9 l-15 -46 q15 -7 15 -13 l-4 -28 q0 -27 27 -27 l9 -2 q35 2 61 10 l0 55 l2 0 q4 0 4 -6 q0 -27 7 -49 l0 -4 q0 -7 -51 -17 l-17 0 q-51 0 -51 32 l0 11 l2 25 l-8 0 q-28 -44 -43 -57 l-4 0 l-4 4 l0 4 l6 15 l7 0 l0 -4 l2 0 l21 30 l0 4 q-11 0 -11 6 l2 57 l-4 13 l0 2 Z" /><glyph glyph-name="" unicode="&#x624b;" d="M144 189 l10 0 l6 -6 l0 -5 q0 -6 -60 -21 l0 7 l46 19 l-2 2 l0 4 ZM134 159 q12 -6 12 -21 l10 2 l10 0 l4 -4 l0 -4 q-22 -16 -22 -26 l0 -8 l4 -4 l44 8 l4 0 q22 -3 22 -8 l0 -5 l-4 -4 q-10 0 -10 4 l-2 -2 l-2 0 l-14 2 q-40 -6 -40 -10 l0 -38 l2 -13 q-6 -57 -14 -57 l-2 0 q-10 10 -28 15 l0 2 l2 2 l0 2 l26 -4 l6 48 l0 26 l-2 15 l-10 0 q-8 -7 -84 -30 l-8 0 l-4 4 l0 2 q0 3 34 11 l70 25 l0 15 l-4 0 l-26 -12 l-2 2 l0 2 q28 17 32 23 l0 2 l-2 0 q-34 -15 -52 -15 l-2 3 l0 2 q42 13 56 23 l0 2 q0 10 -8 19 l4 4 Z" /><glyph glyph-name="" unicode="&#x725b;" d="M133 196 q15 0 15 -14 l0 -44 l2 0 l17 4 l5 -6 l0 -2 l-24 -22 l0 -20 l2 -2 l0 -2 q14 6 34 6 l7 0 l2 -2 l2 2 l6 0 l15 -14 l0 -2 l-4 -6 l-36 12 l-28 -6 l0 -60 l2 -22 l-4 -42 l-6 0 l-2 110 l-2 6 l-3 0 q-22 -4 -76 -28 l-6 0 q-10 4 -11 8 l2 2 l0 2 l11 -4 l83 34 l2 10 l0 2 l-5 4 l-16 -10 l-3 2 l0 2 q22 16 24 24 l-2 2 q-17 -8 -39 -14 l-10 -10 l-4 0 l-5 4 q22 30 22 42 l-5 12 l2 2 q9 -4 13 -10 l0 -4 l-6 -20 l6 -2 q28 8 28 22 l0 40 q0 4 -9 4 l-2 2 l0 2 l6 6 Z" /><glyph glyph-name="" unicode="&#x6bdb;" d="M96 172 l6 0 l24 -18 l0 -4 q0 -2 -30 -10 l-2 -2 l0 -2 l6 -6 l0 -4 l-2 -12 l16 8 l2 0 l4 -6 l0 -4 q-30 -24 -30 -46 l2 0 q20 10 26 18 l-4 6 l0 4 q30 -2 30 -10 q0 -2 -32 -16 q-22 -12 -22 -28 l-2 0 q6 -32 32 -32 l4 0 l56 2 q36 10 36 28 l2 34 l2 2 l4 0 l0 -20 l2 -36 q-16 -12 -50 -20 l-56 0 q-38 6 -38 38 l0 4 q-10 0 -38 -30 l-10 -2 l-4 4 l0 16 q54 52 54 62 l-2 0 l-30 -16 q-8 4 -8 6 q0 4 14 4 q34 18 34 40 q-2 10 -6 10 l-16 -8 l-2 2 l0 2 l32 24 l2 10 l0 2 l-6 0 l0 6 ZM78 68 l-40 -38 l2 -6 q28 20 42 36 l0 4 l-4 4 Z" /><glyph glyph-name="" unicode="&#x6c14;" d="M84 182 l18 0 l6 -6 l0 -6 l-8 -14 l0 -2 l36 10 l2 -2 l0 -6 l-54 -44 l0 -2 l4 0 q36 22 42 22 l2 -2 l0 -4 l-58 -62 l0 -2 l2 0 q42 30 64 40 l2 -2 l0 -4 q-10 -12 -14 -44 q0 -42 42 -54 l16 4 l8 0 l0 4 l2 0 l-2 22 l0 24 l6 0 l10 -54 q0 -4 -18 -8 l0 2 l-16 -4 q-38 0 -54 42 l-4 12 l4 38 l-2 0 l-62 -44 l-8 0 l-4 4 l0 4 l62 66 l-2 0 q-20 -12 -32 -12 l-2 0 l-4 4 l42 44 l-2 0 q-12 0 -48 -30 l-2 0 l-6 4 l0 2 q36 32 44 52 q-12 2 -12 6 l0 2 Z" /><glyph glyph-name="" unicode="&#x5347;" d="M155 191 l2 0 q4 0 10 -13 l-2 -26 l0 -29 l2 -2 l0 -3 l34 7 q19 -6 19 -11 l-4 -4 l-17 2 l-6 -2 l-9 4 q-17 -2 -17 -10 l3 -104 l-9 -41 l-4 0 l2 45 l-2 66 l2 0 l-4 27 l2 0 l-2 7 q-38 -8 -38 -30 q0 -21 -17 -51 l-5 0 l-4 4 l0 5 q0 10 15 36 l0 12 l-57 -23 q-10 0 -13 11 l2 2 l9 -2 l61 27 q0 15 -15 26 l5 4 q19 0 19 -23 l2 0 l36 12 l0 60 l-7 12 l7 5 ZM127 171 l15 -12 q-41 -24 -57 -24 l-2 0 l-5 5 q0 4 20 6 l27 17 l-2 6 l2 2 l2 0 Z" /><glyph glyph-name="" unicode="&#x957f;" d="M101 182 q10 -4 15 -14 l0 -34 l2 0 q28 10 28 20 l-4 4 l4 4 q15 -4 15 -8 l0 -4 q-13 -14 -45 -28 l-2 -26 l2 0 q42 16 62 16 l2 -2 l0 -8 l-4 -4 l-5 0 l-8 2 q-51 -12 -51 -24 l-4 -44 l0 -26 l2 0 q18 14 44 50 q-34 4 -34 8 l0 2 l9 0 l23 2 q52 -10 66 -30 l0 -6 q0 -4 -6 -4 q-31 26 -51 26 q-46 -66 -55 -66 l-3 0 l-6 8 l2 52 l0 14 l2 12 l-2 2 l-49 -26 q-12 4 -12 8 q65 26 65 38 l3 12 l-3 8 l3 2 l-3 2 l-12 0 l0 6 q15 0 15 6 l0 24 q0 8 -11 18 l0 4 q0 4 6 4 Z" /><glyph glyph-name="" unicode="&#x4ec1;" d="M100 156 q14 -5 14 -12 q-26 -41 -84 -104 l-2 0 l-4 4 q72 87 72 100 l-2 10 l6 2 ZM188 129 l8 -7 l0 -4 q-26 -30 -36 -30 l-2 3 l0 2 l12 12 l0 5 q-28 5 -28 10 l6 4 l20 -2 l20 7 ZM80 82 l12 -15 l-2 -17 l2 -17 l-2 -15 l2 -12 l-2 -2 l-6 0 q-6 2 -6 12 l0 11 l6 38 l-8 15 l2 2 l2 0 ZM212 67 q10 0 20 -13 l-6 -6 l-22 6 q-26 0 -68 -16 l-8 0 l-6 6 l0 2 q0 4 18 4 q36 17 72 17 Z" /><glyph glyph-name="" unicode="&#x7247;" d="M128 184 l10 0 q6 0 6 -11 l-4 -49 l50 9 l2 -2 l0 -5 q-4 -8 -16 -8 l-8 4 l-72 -27 q-14 -70 -22 -70 q-4 0 -8 15 q10 0 20 46 l-2 2 l0 26 q0 7 -14 23 l0 6 l4 0 q20 -12 20 -31 q0 -9 6 -9 q34 10 34 40 l0 22 q0 11 -10 12 l0 2 l4 5 ZM146 82 l6 -4 l0 -51 l2 -13 q-4 -38 -10 -38 l-2 0 q-4 0 -8 19 q6 0 8 17 l-2 57 l-2 2 l-2 0 l-36 -12 l-2 0 l-4 4 l46 19 l6 0 Z" /><glyph glyph-name="" unicode="&#x5316;" d="M63 162 l7 0 q7 -4 10 -14 q-4 -14 -29 -60 l2 0 q15 0 15 -20 l-3 -26 l7 -6 q-2 -28 -7 -28 l-6 0 q-4 0 -6 18 q6 10 8 42 q0 16 -15 16 q-14 -28 -19 -28 l-6 6 q40 54 47 86 l-5 8 l0 6 ZM125 160 l4 0 q4 0 6 -12 l-4 -36 l0 -4 q7 2 34 38 l-4 14 l2 0 q15 -4 15 -10 l0 -4 q-51 -58 -51 -62 l0 -8 q0 -36 32 -36 l21 0 q42 0 42 26 l2 28 l5 0 l6 -50 q-27 -16 -61 -16 q-48 0 -56 32 l3 0 l-3 2 l0 16 l-8 2 q15 16 15 70 l-4 0 l0 6 l4 4 Z" /><glyph glyph-name="" unicode="&#x4ec7;" d="M54 166 q11 0 17 -10 l0 -2 l-28 -56 l2 0 l7 2 q8 -2 8 -6 l0 -36 l-2 -12 l2 -2 l0 -2 l-2 -18 l2 -18 l-2 -2 l-4 0 q-4 0 -9 24 q7 14 7 42 l0 22 l-2 0 q-19 0 -32 -30 l-4 0 l-5 4 l0 4 q34 44 49 80 l-8 12 l4 4 ZM107 154 l6 0 q15 -6 15 -26 l2 0 l21 16 l5 0 l8 -10 q-15 -16 -15 -56 q0 -30 17 -30 l2 2 l17 -2 l9 2 l2 -2 l2 0 q32 4 32 14 l2 10 l-2 2 l0 2 l2 30 l0 2 l2 0 q5 0 9 -44 l4 -4 q0 -20 -57 -26 l-3 0 q-48 0 -48 32 l0 38 l4 16 l-2 2 q-21 -8 -21 -26 q-17 -44 -32 -58 l-2 0 l-5 4 l0 2 q7 4 26 46 l0 8 l-2 0 q-10 -8 -15 -8 q-11 4 -11 14 l2 2 l11 -2 q23 10 23 36 l-8 8 l0 6 Z" /><glyph glyph-name="" unicode="&#x4ecd;" d="M92 176 q10 -4 15 -12 l0 -4 q0 -14 -60 -98 l-4 0 l-4 4 l0 2 q48 60 55 92 l-4 14 l2 2 ZM181 162 l2 0 l9 -10 l-11 -42 l17 4 q11 0 19 -18 q0 -84 -57 -108 l-2 2 l0 2 q48 36 48 100 q-2 10 -6 10 l-4 0 q-8 0 -17 -8 l-4 0 l-5 4 l9 42 l0 10 l-4 0 l-53 -36 l-2 0 q0 18 61 48 ZM151 128 l5 -4 l0 -2 q-3 -28 -36 -90 l-3 0 l-6 6 l0 32 l2 10 l2 0 l5 -4 l0 -18 l2 0 q17 18 27 70 l2 0 ZM81 96 q6 0 11 -10 l-2 -2 l0 -4 l2 -6 l-2 -10 l2 -22 l-6 -26 l2 -2 l0 -4 l-7 -6 l-2 0 q-5 0 -6 20 q10 24 10 50 l0 12 q0 4 -8 4 l0 4 l6 2 Z" /><glyph glyph-name="" unicode="&#x516e;" d="M140 176 q0 -8 25 -10 l6 2 q23 0 39 -26 l0 -4 l-5 -4 l-10 0 l-15 2 l0 4 q0 4 13 4 q0 4 -15 14 l-21 0 q-14 0 -22 16 l2 2 l3 0 ZM89 164 l10 -10 l0 -6 q-35 -44 -51 -44 l-2 2 l0 6 q0 12 17 12 q24 24 24 32 l-7 6 l2 2 l7 0 ZM144 126 l8 -6 l0 -2 q-18 -10 -38 -42 l0 -2 l32 12 q8 0 17 -14 l0 -16 q0 -56 -53 -76 l-4 0 l-5 4 q51 22 51 82 l-6 6 l0 2 l-49 -22 l-4 0 l-4 4 l0 4 l31 42 l-2 0 q-29 -14 -40 -14 l-2 2 l0 2 l68 34 Z" /><glyph glyph-name="" unicode="&#x7236;" d="M146 170 l0 -2 l6 2 q30 -10 30 -14 q0 -5 -42 -32 q0 -4 -6 -4 l-2 -3 l0 -4 l4 -6 q0 -13 -12 -43 q70 -34 100 -65 l-4 -5 q-72 51 -104 58 q-22 -24 -60 -24 l-2 0 q-22 0 -22 19 l0 11 l6 6 l2 -2 l0 -2 l-2 -13 q4 -10 16 -10 q30 0 52 21 l-42 17 l-14 -4 l-2 2 l0 2 q10 6 18 6 q34 -10 48 -10 l2 0 l6 25 l-2 21 l0 3 l40 31 l0 5 l-34 6 l0 4 l20 4 ZM76 149 q8 -9 8 -17 q-14 -32 -38 -32 l-2 3 l0 4 l28 21 q0 21 4 21 Z" /><glyph glyph-name="" unicode="&#x4ece;" d="M159 142 q12 0 15 -8 q-18 -66 -57 -96 l-2 0 q-11 0 -40 20 l-7 0 l-25 -30 l-4 4 q0 6 25 38 l17 36 q-11 2 -11 6 l5 4 l6 0 q11 0 15 -8 l-19 -40 q15 -10 23 -10 q8 40 53 84 l6 0 ZM108 46 l3 -2 q31 22 50 86 l-2 2 l-6 0 q-26 -14 -40 -66 l-5 -20 ZM164 72 q50 -14 50 -32 l3 -10 l-3 -2 l-6 0 l-23 26 l-32 16 l2 2 l9 0 Z" /><glyph glyph-name="" unicode="&#x4eca;" d="M114 180 l7 0 l6 -6 l-13 -24 q25 -6 81 -56 q40 -18 42 -22 l0 -4 l-4 -6 q-7 8 -42 20 q-60 60 -79 60 l-2 0 q-8 -6 -34 -56 q-36 -54 -53 -54 l-4 4 l0 10 l4 4 l2 -6 l5 0 q40 40 80 130 q0 6 4 6 ZM108 104 q25 -4 25 -12 q0 -4 -25 -12 l-2 2 l0 2 l6 6 q0 4 -15 6 l0 2 l11 6 ZM89 68 l4 -6 l-6 -10 l0 -4 l4 -4 q26 18 49 18 l2 0 l8 -8 l0 -6 l-14 -44 l-11 -14 l-2 0 q-4 0 -4 8 q15 22 19 54 l-2 2 q-9 0 -47 -20 l-4 0 l-7 6 l0 14 l11 14 Z" /><glyph glyph-name="" unicode="&#x5206;" d="M107 180 q8 0 70 -56 q51 -18 51 -26 l-2 -2 l-5 0 q-48 12 -67 32 q-32 36 -47 42 l-6 0 l-3 -2 l-2 0 l-2 2 l0 2 q2 8 13 8 ZM69 150 q10 0 19 -12 l0 -6 q-47 -50 -51 -50 l-4 0 l-5 4 l0 2 q38 30 45 48 l-4 14 ZM130 104 q5 0 17 -14 q-15 -88 -40 -98 l-2 -2 q-7 0 -15 32 l4 4 q9 -18 13 -18 l2 0 q25 46 25 78 l-6 8 l-2 0 q-28 0 -34 -40 q-16 -30 -23 -34 l-5 4 q20 38 20 44 l0 6 l-15 -2 l-5 6 q0 2 34 14 q15 12 32 12 Z" /><glyph glyph-name="" unicode="&#x516c;" d="M152 150 l4 0 q54 -8 54 -34 l-8 -4 q-8 2 -18 20 q-28 6 -32 14 l0 4 ZM92 134 l14 -14 l0 -4 q-32 -36 -58 -46 l-2 2 l0 2 q0 16 18 16 q28 22 28 32 l-6 10 l2 2 l4 0 ZM128 98 l4 0 q8 -4 10 -12 l-22 -34 l0 -2 l4 0 l34 6 l0 4 l-4 6 l0 2 l2 2 l0 2 q26 -8 26 -30 l0 -18 l-4 -4 l-4 0 q-6 0 -6 16 l-16 12 q-32 -12 -44 -22 l-4 0 l-6 6 l0 12 q26 26 32 40 l0 2 l-8 8 l6 4 Z" /><glyph glyph-name="" unicode="&#x4ed3;" d="M118 180 l4 -8 l0 -2 q-12 -12 -14 -20 q14 0 80 -48 q44 -12 44 -24 l-2 -2 l-2 0 q-44 8 -92 52 q-14 12 -28 14 l-2 0 q-6 -2 -32 -48 q-14 -20 -40 -42 l-6 0 l-4 4 q22 12 50 56 l28 50 l0 4 l-4 6 q10 8 20 8 ZM136 100 q12 -2 12 -6 l0 -2 q-14 -44 -28 -52 l-2 0 q-10 8 -14 8 l0 -22 q6 -12 16 -12 l44 4 l8 -10 l0 -2 q-2 -6 -36 -16 l-2 0 l0 4 l4 8 l-12 2 l-14 0 q-18 12 -18 38 l2 8 l0 12 q-18 0 -20 10 l0 2 l18 0 q32 26 42 26 ZM102 66 q4 -14 18 -14 q12 20 16 38 l-2 0 q-8 0 -32 -24 Z" /><glyph glyph-name="" unicode="&#x6708;" d="M148 184 q18 -6 18 -14 q-2 -18 -6 -18 l10 -92 l-2 -2 q6 -26 6 -58 l0 -10 l-4 -4 q-36 22 -46 32 q-10 12 -22 44 l-2 0 q-6 -48 -12 -48 l-2 0 l-4 4 l0 4 l18 114 l-6 18 l6 0 l10 -14 l0 -12 l2 0 l16 12 l4 0 q4 0 6 -14 q-4 -18 -8 -22 l0 -4 l14 0 l6 -4 l2 0 l0 74 l-4 0 l0 4 l-36 -14 l-16 -2 l-2 0 l-6 4 l60 22 ZM106 86 q0 -32 34 -70 l20 -10 l4 2 l0 2 l-10 78 l-2 0 q-22 -24 -30 -28 l-2 2 l-2 0 l18 26 q-18 0 -18 8 l10 28 l0 2 q-18 0 -22 -40 Z" /><glyph glyph-name="" unicode="&#x6c0f;" d="M117 175 l4 -6 q0 -4 -28 -13 l-6 2 l-13 -2 l-2 0 l-4 5 q0 4 47 14 l2 0 ZM85 152 l2 0 l21 -25 l2 0 l19 2 l7 0 l4 -5 q0 -3 -17 -10 l-6 -6 q38 -70 85 -92 l0 51 q4 0 12 -57 q4 0 4 -11 l-6 -4 q-62 29 -100 106 l-6 0 q-27 -21 -34 -21 l-8 6 l0 2 l4 5 l2 -2 l2 0 q30 14 30 23 l-21 34 l4 4 ZM51 129 q11 -12 11 -17 q0 -30 -13 -77 l2 -2 l4 0 l53 41 l4 0 l0 -5 q-47 -48 -61 -48 l-4 0 q-6 0 -9 21 l0 4 q15 25 15 66 l-6 15 l2 2 l2 0 Z" /><glyph glyph-name="" unicode="&#x52ff;" d="M122 184 q9 -2 17 -14 l0 -6 l-41 -66 l2 -2 l13 0 l55 20 l7 0 q21 -10 23 -16 q-22 -86 -55 -114 l-2 0 q-4 0 -26 40 l0 4 q28 46 28 64 l0 4 l-4 0 q-20 0 -24 -32 l-17 -34 l-6 6 q17 38 17 50 l-15 6 l-30 -34 l-2 0 l-4 4 l0 2 l38 44 l30 54 l-6 14 l0 2 l2 2 l0 2 ZM153 104 l3 -10 q-15 -44 -32 -64 l15 -28 l4 0 q40 58 40 94 l0 2 q0 6 -21 10 l-9 -4 Z" /><glyph glyph-name="" unicode="&#x98ce;" d="M143 170 q10 -4 10 -9 l0 -2 q-12 -13 -12 -40 l0 -9 q14 -95 65 -95 q11 3 11 6 q-40 53 -57 56 l0 4 q22 0 68 -62 l0 -6 q0 -4 -28 -9 q-20 0 -49 37 q-21 40 -21 82 l4 34 l-6 0 l-59 -23 q-9 3 -13 10 l6 3 l7 -5 l72 28 l2 0 ZM109 117 q11 -2 11 -7 l0 -4 q-20 -28 -30 -49 l0 -4 l2 0 l19 11 q17 -6 17 -19 q0 -22 -30 -45 l-4 4 q23 28 23 41 l0 4 l-4 4 q-7 0 -32 -21 l-4 0 l-2 2 l0 4 q0 11 34 70 l-4 0 q-38 -12 -38 -42 q-24 -57 -30 -57 q-5 0 -9 21 q3 19 7 19 q4 -5 4 -15 q9 0 21 53 l0 4 l-4 7 l2 2 l0 2 l-2 6 l4 0 q8 -6 15 -6 q18 11 34 15 Z" /><glyph glyph-name="" unicode="&#x6b20;" d="M112 185 q12 -5 14 -13 q-10 -43 -30 -72 l2 0 q48 38 66 38 l2 0 l6 -6 q0 -25 -38 -66 q-10 -9 -26 -13 q-20 -57 -52 -57 l-4 4 q24 7 34 26 q20 35 20 61 l-2 2 l-2 0 q-8 -12 -18 -17 l-6 7 q36 76 36 85 l0 10 q0 4 -8 4 l-2 3 l0 2 l8 2 ZM114 98 l4 -7 l-2 -25 l2 0 q42 34 42 62 l-2 0 q-14 0 -44 -30 ZM138 47 l2 0 q64 -10 64 -59 l-2 -3 l-6 0 l-24 22 l14 2 q-8 19 -48 34 l0 4 Z" /><glyph glyph-name="" unicode="&#x4e39;" d="M151 186 l2 0 q15 0 21 -16 l-6 -10 l0 -46 l4 -16 l11 2 l25 0 q19 0 30 -16 l0 -6 l-4 -4 l-2 0 l-41 18 l-2 0 q-19 -6 -19 -8 l2 -14 l-2 -2 l2 -10 l0 -58 q0 -16 -6 -16 q-12 0 -19 16 q-9 0 -19 26 l2 2 l2 0 q13 -20 28 -20 l2 8 l-2 70 l-11 0 q-42 -6 -42 -26 q-9 -22 -9 -34 l2 -10 l-2 -2 l-4 0 q-6 0 -9 20 q0 18 13 32 l0 6 l-70 -20 q-5 0 -10 10 l55 14 q29 4 29 20 l2 24 l0 4 l-6 32 q4 0 9 12 l44 18 ZM107 162 q0 -24 25 -26 q17 -10 17 -20 q0 -8 -21 -10 l-2 2 l0 2 l6 10 l0 2 q0 4 -15 6 l-4 -38 l47 8 l-5 32 l2 10 l0 20 l3 14 l-9 0 q-11 -8 -44 -12 Z" /><glyph glyph-name="" unicode="&#x4e4c;" d="M118 196 l2 0 q12 0 14 -10 l0 -2 l-22 -50 q6 -2 6 -12 l-4 -48 l0 -12 l60 20 l26 0 l20 -16 q-8 -12 -12 -44 q-18 -48 -28 -48 q-14 6 -26 22 l0 4 l2 0 l20 -14 q14 0 28 70 l2 0 q-4 18 -12 18 l-8 -2 l-6 2 q-44 -10 -68 -28 l-6 0 l-4 6 l4 58 l0 12 q0 2 -8 6 l-2 2 l0 2 q18 18 26 48 l0 4 l-4 6 l0 6 ZM150 154 l8 0 q8 -4 8 -10 q-4 -6 -14 -66 l-2 -2 l-2 0 q-12 4 -12 16 q14 0 18 52 l-2 2 l-2 0 q-16 -10 -26 -10 l-2 2 l0 2 l28 14 ZM142 42 l14 0 q12 0 12 -6 l0 -2 l-4 -4 l-16 4 l-2 0 q-12 0 -98 -32 l-2 0 q-10 4 -10 16 l4 2 l2 0 l8 -10 q0 6 92 32 Z" /><glyph glyph-name="" unicode="&#x51e4;" d="M140 170 q16 -7 16 -11 l0 -2 q-14 -10 -14 -34 l0 -17 l-2 -2 q20 -91 58 -91 l4 0 l0 6 q0 11 -12 34 l2 0 q18 -18 30 -49 l-8 -4 l-14 0 q-30 0 -58 57 l-10 53 l4 43 l-8 0 l-48 -15 l-10 0 q-10 0 -12 6 l2 3 l0 2 l10 -2 l4 0 q12 0 66 23 ZM56 117 l12 -19 l-2 -36 l30 0 q6 0 12 31 l-4 0 q-14 -14 -22 -14 l-2 0 l-6 4 l0 2 l4 2 l0 2 l2 -2 l2 0 l24 17 q12 0 16 -11 l-14 -36 l4 0 q18 -5 32 -27 l0 -4 l-4 -5 q-26 26 -40 26 l-16 -17 l-4 0 l-18 4 l-4 0 q0 -9 -14 -30 q-10 0 -10 26 l0 4 l4 4 q4 -12 8 -12 q10 21 14 55 l-8 34 l2 2 l2 0 ZM68 51 l0 -4 l10 -9 q8 3 12 11 l0 2 l-22 0 Z" /><glyph glyph-name="" unicode="&#x516d;" d="M106 152 l6 0 l12 -11 l0 -6 l-8 -32 l2 0 l28 13 q10 -4 12 -9 l0 -2 l-30 -15 l-28 -17 l-2 3 l0 2 q4 0 4 6 l-4 8 q14 33 14 45 l-6 11 l0 4 ZM176 69 q28 0 28 -17 l6 -15 q-4 -9 -8 -10 l-2 0 q-8 8 -22 8 l-2 2 l0 3 q2 6 18 6 l0 2 q0 5 -20 15 l-2 2 l0 2 l2 2 l2 0 ZM52 42 l2 0 l2 -9 l12 4 l2 0 l4 -4 l-18 -15 l-2 0 l-8 9 q2 15 6 15 Z" /><glyph glyph-name="" unicode="&#x6587;" d="M102 168 q8 -7 30 -9 l8 -10 l0 -3 l-4 -4 q-36 13 -38 21 l4 5 ZM178 127 l6 0 q12 -1 12 -6 l0 -2 l-4 -4 l-2 0 l-16 4 q-30 -7 -36 -13 l2 -6 l-8 -43 q38 -44 88 -44 l6 -6 l-4 -5 l-14 0 q-40 0 -84 47 l-2 0 q-36 -36 -62 -40 l-2 0 l0 6 q16 0 56 40 l0 7 l-28 23 l-2 0 q-22 -16 -38 -21 q-16 1 -16 6 l74 34 q22 11 74 23 ZM96 89 q4 -7 22 -19 l4 0 l6 28 l0 4 q-12 0 -32 -13 Z" /><glyph glyph-name="" unicode="&#x65b9;" d="M106 177 l36 -8 l2 -2 l0 -11 l-4 -4 l-17 0 q-17 19 -21 19 l-2 2 l0 2 l2 2 l4 0 ZM208 135 q8 -3 12 -11 l0 -2 l-4 -4 l-51 2 l-32 -8 l3 -15 l-3 -2 l3 -2 l27 0 q5 -2 11 -15 q-17 -69 -41 -85 l-2 0 q-10 0 -14 40 l2 0 q6 0 12 -23 q17 10 28 57 l2 13 l0 2 l-11 0 l-21 2 q-15 -38 -49 -70 l-2 0 l-4 4 q38 43 47 83 l0 4 l-9 0 q-6 -5 -25 -6 q-28 -19 -40 -19 q-11 1 -11 6 q51 25 142 45 l2 0 l0 -2 l28 6 Z" /><glyph glyph-name="" unicode="&#x706b;" d="M104 178 l2 0 q14 -10 18 -22 l-2 -44 l0 -8 l2 0 q18 16 38 16 q16 -4 16 -8 l0 -6 q0 -12 -38 -20 l0 4 q20 12 20 18 l-6 4 q-34 -6 -34 -34 q-12 -76 -54 -76 q-14 2 -14 6 q36 0 50 36 l6 36 l-2 0 q-24 -26 -30 -26 q-16 20 -16 30 l0 4 l6 6 q2 -10 12 -24 q32 18 32 30 l2 40 l0 10 l-12 20 l0 2 l4 6 ZM130 46 q48 0 74 -44 l0 -4 l-4 -6 q-38 44 -70 50 l0 4 Z" /><glyph glyph-name="" unicode="&#x4e3a;" d="M164 180 q12 -2 12 -14 l0 -2 q0 -8 -24 -48 l0 -4 q12 0 20 6 l10 0 q24 -6 24 -12 l0 -12 q-16 -100 -34 -100 l-6 -4 l-2 0 q-36 38 -36 56 l2 0 q32 -42 36 -44 q18 16 28 90 l0 6 q-6 10 -14 10 q-46 -12 -46 -28 l-4 -2 l0 -4 q32 0 32 -20 l0 -4 l-8 -8 l-4 0 l-4 4 l0 2 l4 8 q0 6 -16 8 q-16 0 -30 -38 l-2 -2 l-2 0 l-6 4 l0 10 q12 10 28 44 l-2 0 q-44 -26 -56 -26 l-4 0 l-10 10 l0 2 l4 0 l6 -4 l6 0 q74 38 74 46 q24 44 24 58 l-4 4 l-8 -2 l-2 2 l0 2 q8 6 14 6 ZM134 154 l2 0 l0 -2 q0 -8 -22 -36 l-6 0 q-14 10 -14 22 l0 6 l2 0 l14 -12 l2 0 l22 22 Z" /><glyph glyph-name="" unicode="&#x6597;" d="M136 192 l8 0 q6 -2 6 -13 l0 -80 l4 -4 q28 3 28 10 l0 5 l2 0 l28 -17 l0 -5 l-4 -4 l-38 4 q-20 -3 -20 -8 l0 -38 q0 -47 -6 -63 l2 -2 l0 -9 l-4 -4 l-4 6 l0 43 l2 2 l-2 2 l2 9 l-4 52 l-2 0 q-26 -10 -78 -38 l-2 0 q-10 3 -10 12 q14 0 66 28 q24 8 28 15 l0 84 l-6 9 l4 4 ZM96 154 q30 -3 30 -11 l0 -2 q0 -6 -16 -8 q0 5 -14 17 l0 4 ZM86 118 q30 -3 30 -8 l0 -3 l-20 -19 l-6 0 l0 2 q8 10 8 15 l-2 0 q-8 0 -12 9 l2 2 l0 2 Z" /><glyph glyph-name="" unicode="&#x5fc6;" d="M63 177 l5 0 l8 -8 l0 -21 l-2 -36 l8 0 q12 0 15 -11 q-3 -8 -6 -8 l-4 0 l-11 8 l-2 0 l-4 -36 l0 -30 l-2 -2 l2 -2 l0 -34 l-5 -4 l-2 0 q-5 0 -6 19 q4 8 6 70 l-2 2 l0 2 q7 11 7 81 q-9 3 -9 6 l4 4 ZM157 144 l4 0 l4 -5 l0 -6 q-40 -52 -40 -91 q0 -12 34 -17 q68 4 68 15 l6 36 l-2 2 l0 2 l2 6 l4 0 l0 -57 q-21 -15 -70 -15 q-53 0 -53 32 q0 25 30 79 l-19 0 l-4 4 l36 15 ZM21 86 l4 0 l0 -12 l4 0 l13 12 l2 -2 l0 -2 q-5 -24 -12 -27 l-7 0 q-6 1 -6 16 l2 15 Z" /><glyph glyph-name="" unicode="&#x8ba1;" d="M160 185 l6 0 q11 -6 11 -13 l2 -59 l2 -2 l2 0 l34 6 q11 -2 11 -6 l0 -4 l-5 -5 l-4 0 l-10 3 q-30 -4 -30 -13 l0 -4 l2 0 l-2 -15 l1 -17 l-2 -2 l2 -2 l-2 -11 l0 -13 q0 -63 -9 -63 l-2 2 l0 4 l2 17 l-2 23 l0 34 l2 2 l-2 3 l1 10 l0 30 l-2 0 l-29 -13 l-9 2 q-10 -5 -42 -59 l-2 0 q-9 0 -9 27 q7 0 11 58 l-5 0 q-30 -28 -40 -28 q-11 0 -13 6 l0 2 l5 5 l4 -5 q9 0 51 34 l6 0 l4 -4 l-10 -68 l2 0 q26 30 34 45 l13 -2 q31 12 31 17 l0 15 q0 55 -10 55 l-2 2 l0 2 l4 4 ZM107 168 q8 -9 8 -15 l-6 -4 l-2 0 l-28 11 l0 2 q0 5 28 6 Z" /><glyph glyph-name="" unicode="&#x6237;" d="M124 176 l2 -2 l28 0 q12 0 12 -6 l0 -4 q0 -6 -15 -8 q0 10 -27 14 l-2 2 l0 2 l2 2 ZM185 142 l13 -12 l0 -2 l-27 -28 l2 -8 q-64 -14 -64 -46 q-20 -52 -47 -72 l-4 4 q34 36 49 106 l0 16 l-11 0 l-12 -2 q-11 4 -11 6 q8 0 108 38 l4 0 ZM115 106 l7 -16 l-2 -2 l0 -2 l2 -2 l2 0 q53 26 57 48 l-2 0 q-21 -4 -64 -26 Z" /><glyph glyph-name="" unicode="&#x5fc3;" d="M171 137 l13 0 q23 0 26 -29 l-7 -2 q-19 2 -19 8 q9 3 9 6 q-8 13 -22 13 l0 4 ZM97 131 l5 0 q0 -10 16 -13 l7 4 l2 0 l4 -4 q0 -7 -15 -15 q-19 10 -19 24 l0 4 ZM159 86 l38 -38 l0 -2 q0 -9 -53 -10 q-40 0 -59 44 l0 4 l2 0 q30 -38 59 -38 l32 4 l0 5 l-23 29 l2 2 l2 0 ZM51 78 l6 -42 l-2 -3 l-4 0 l-5 5 l0 36 l5 4 Z" /><glyph glyph-name="" unicode="&#x5c3a;" d="M134 166 l2 0 l15 -12 l-17 -36 l2 0 l7 -8 l0 -2 q0 -2 -26 -10 l-12 -10 l0 -2 l10 0 q70 -62 91 -62 q25 0 30 -10 l-2 -2 l-34 0 q-19 0 -78 58 l-24 16 q-10 0 -25 -48 q-26 -34 -45 -34 l-4 0 l-4 6 q44 18 44 42 q17 28 17 78 l2 2 l0 2 l-6 6 l0 4 q0 4 21 4 l36 18 ZM105 134 l-2 2 l0 2 q-13 0 -13 -42 l2 0 q23 6 44 46 l0 12 q-12 0 -31 -20 Z" /><glyph glyph-name="" unicode="&#x5f15;" d="M176 184 q14 0 14 -48 l2 -28 l-2 -10 l2 -34 l-2 0 l2 -2 q-10 -96 -20 -96 l-2 0 q2 26 6 26 l-2 2 l6 50 l2 0 l-2 2 l0 2 l2 2 l-2 2 l0 2 l2 4 l-2 2 l0 50 l2 8 l-2 10 l0 12 q0 32 -8 38 l4 6 ZM120 174 q10 0 16 -10 l-34 -44 l0 -2 l10 2 l2 0 l4 -4 l0 -4 l-20 -30 l0 -2 l16 4 l2 0 q6 0 10 -14 q-16 -58 -24 -58 q-10 4 -16 14 l0 6 l4 0 l8 -6 l2 0 q6 0 12 36 l0 12 q-12 0 -38 -26 l-2 0 l-4 4 l0 2 l30 48 l-2 0 l-24 -18 l-4 0 l-4 4 l0 4 q40 42 54 72 l-2 0 q-30 -24 -40 -24 q-10 0 -12 6 l0 4 l10 -2 l44 26 l2 0 Z" /><glyph glyph-name="" unicode="&#x4e11;" d="M167 157 q20 -8 24 -17 q-7 -27 -30 -84 l19 0 q45 0 57 -19 l2 -9 l-6 -4 l-34 19 q-15 1 -15 4 q-30 0 -40 -10 l-2 0 l-6 4 l-68 -17 q-6 -5 -43 -11 l-8 11 l0 4 l10 -2 l7 0 q33 6 53 15 l-4 12 l2 3 l2 0 l6 -7 l2 0 q7 0 19 38 l-2 0 l-19 -2 l-2 0 l0 7 q30 0 30 19 l2 8 q-19 12 -19 15 l0 4 l12 -2 l51 21 ZM131 126 l2 -9 l-4 -13 l0 -2 q15 -1 15 -8 l0 -2 l-6 -7 l-5 0 l-6 5 l-2 -3 q9 -36 17 -36 q15 0 36 87 l0 5 l-15 4 q-32 -14 -32 -21 ZM119 73 l-11 -26 l6 0 l13 4 l-4 22 l-4 0 Z" /><glyph glyph-name="" unicode="&#x5df4;" d="M129 158 l11 -11 l0 -2 q-25 -31 -34 -48 q-9 0 -55 -26 l-5 -23 q0 -24 45 -24 l23 0 q94 0 94 22 l6 44 l4 0 l2 -6 l-2 -11 l0 -40 q0 -15 -99 -21 q-83 0 -83 34 l0 10 l6 47 l-6 6 l2 2 l4 0 q9 -5 13 -14 l-2 -9 l0 -2 l2 0 q6 0 19 8 l-2 3 l0 2 l2 19 q0 4 -23 8 l-2 2 l0 2 q20 1 59 26 l21 2 ZM80 126 l7 -8 l-5 -17 l3 0 q20 4 40 44 l-2 2 l-4 0 q-21 -3 -39 -21 Z" /><glyph glyph-name="" unicode="&#x5b54;" d="M88 166 q14 -4 14 -8 l0 -6 q-30 -36 -30 -50 l12 -2 q12 24 52 60 l6 0 q4 0 8 -14 q-12 -54 -12 -84 q0 -24 30 -24 l2 0 q46 2 46 12 l0 18 l-2 26 l2 2 l2 0 l12 -48 q0 -16 -46 -20 l-2 2 l-2 0 l-8 -2 l-6 2 l-8 -2 l0 2 l-2 -2 l-2 0 q-22 0 -24 32 l8 88 l-4 0 q-12 -2 -46 -50 l2 -14 l0 -28 q-2 -50 -14 -60 l-2 0 l-26 28 l-6 0 l-8 -6 l-4 0 l-4 4 l0 4 q20 16 50 66 q-14 0 -14 6 l0 6 q0 6 24 48 l-2 2 q-4 0 -30 -30 l-6 0 l-8 8 l0 10 l6 6 l0 -12 l4 0 q24 22 38 30 ZM48 32 q4 0 24 -22 l4 0 l0 2 q6 28 6 54 l-2 10 l-2 0 q-8 -4 -30 -44 Z" /><glyph glyph-name="" unicode="&#x4ee5;" d="M176 136 l12 0 l6 -7 l0 -4 q0 -11 -22 -44 l0 -7 l10 2 l8 0 q16 -9 16 -12 q0 -8 -28 -15 q-14 -15 -26 -15 l0 2 q14 16 36 28 l0 4 l-2 0 l-24 -4 l-2 0 l-4 4 l24 46 l2 11 l0 2 q-8 0 -26 -13 l-2 3 l0 2 l22 17 ZM130 93 l4 0 q0 -10 -20 -34 l-2 0 l-4 5 l0 19 q-14 0 -14 6 l4 2 l4 0 q8 0 18 -10 l10 12 ZM50 81 l2 0 q6 -1 12 -17 l2 -3 l2 0 l12 13 l6 0 l0 -2 l-16 -30 l-4 0 q-8 4 -16 32 l0 7 Z" /><glyph glyph-name="" unicode="&#x4e88;" d="M150 185 l2 0 q6 -2 6 -13 l0 -2 l-28 -34 l0 -2 l4 -6 l0 -4 l-54 -32 l-22 -23 l4 0 q78 52 126 59 q10 0 20 -15 q0 -5 -24 -13 q-14 -12 -32 -12 l0 2 l40 27 l-6 5 q-12 0 -54 -20 q10 -21 10 -59 l0 -19 q0 -31 -30 -49 l-10 0 l0 5 q28 19 28 57 l0 6 q0 51 -10 51 q-18 -7 -66 -42 l-4 0 l-2 2 l0 15 q24 25 70 57 q-12 5 -12 8 q0 4 14 4 q28 28 28 39 l-2 0 q-8 0 -46 -22 l-6 0 l-4 5 l0 6 l6 6 l2 0 l0 -6 q44 19 52 19 Z" /><glyph glyph-name="" unicode="&#x529d;" d="M167 153 q4 0 13 -19 l8 -2 l2 2 l3 0 q7 0 21 -22 q-22 -72 -55 -95 q-14 0 -19 42 l-5 0 q0 -4 -21 -27 l-2 2 l-2 0 l42 74 l-4 0 l-30 -12 l0 4 q1 7 43 25 l2 11 l0 6 l-11 -2 l0 4 q4 9 15 9 ZM95 136 q13 -2 13 -7 l-21 -48 l12 -9 l15 21 l2 3 l2 0 q-7 -37 -12 -37 l-7 0 l-15 11 l-2 0 q-5 -3 -27 -38 l-4 0 q-9 3 -9 19 l0 8 l4 0 l2 -12 l5 0 q19 21 19 29 l-2 0 q-22 5 -22 9 l0 4 l3 0 l27 -4 l2 0 l15 40 l-4 0 q-14 -10 -21 -10 l-5 0 l-6 6 l0 4 l11 -2 q18 13 25 13 ZM148 79 l0 -13 q0 -20 9 -36 q27 21 46 80 q-3 9 -10 13 l-7 0 q-17 0 -29 -32 l-9 -12 Z" /><glyph glyph-name="" unicode="&#x53cc;" d="M173 154 l9 0 l8 -8 l0 -6 q0 -12 -25 -56 l0 -2 q70 -32 70 -62 l-5 -4 l-2 0 q-9 8 -19 28 l-46 28 l-5 0 q-33 -34 -51 -34 q-12 18 -21 22 l-4 0 q-33 -38 -51 -38 l-4 0 l-6 6 l4 6 l6 -6 q17 0 45 42 l-24 18 l2 2 l3 0 q6 0 21 -10 l2 0 q19 28 19 46 l-2 0 q-19 -16 -28 -16 l-4 0 l-6 6 l0 6 l10 -2 q34 22 41 22 l4 -10 q-9 -26 -26 -58 q1 -4 11 -10 q8 30 13 30 l2 0 l-4 -44 l0 -2 l6 0 q30 16 30 32 q-24 8 -24 12 l0 2 l2 0 l32 -6 q11 18 24 56 q-7 0 -53 -28 l-3 0 l0 2 q0 8 49 36 Z" /><glyph glyph-name="" unicode="&#x4e66;" d="M100 176 q6 0 14 -14 l-2 -28 l2 0 l24 8 q10 -1 10 -6 l0 -6 l-40 -45 l0 -4 l2 0 q30 17 52 17 q14 0 22 -11 l0 -6 q-14 -51 -46 -51 l-8 -2 q-10 0 -22 11 l-2 -7 l4 -36 l-2 -2 l-4 0 l-6 6 l0 53 l-2 3 l0 2 l-30 -22 l-6 -2 l-6 7 l0 2 q40 35 40 47 l4 12 l0 9 l-16 -2 q-10 0 -16 10 l0 2 l2 0 l12 -4 q22 0 22 25 l2 11 q-2 6 -10 15 l0 2 l6 6 ZM172 157 q30 -10 30 -36 l0 -2 l-6 -4 l-2 0 q-2 0 -12 25 l-14 15 l2 2 l2 0 ZM130 132 q-22 -13 -22 -23 l0 -5 l4 0 l22 26 l-2 2 l-2 0 ZM108 66 l0 -2 q0 -11 14 -25 l14 0 q26 0 38 40 l0 2 q0 5 -22 9 q-42 -15 -44 -24 Z" /><glyph glyph-name="" unicode="&#x7389;" d="M148 162 l12 -12 q0 -2 -36 -12 q-8 -10 -8 -30 l2 0 l18 2 q16 -12 16 -16 q0 -8 -62 -68 l0 -4 l46 6 l4 0 l-4 24 l2 2 l2 0 l16 -34 l-4 -4 l-18 2 l-64 -10 l-2 2 l0 8 l32 32 l0 4 q-30 10 -30 20 q2 14 34 30 l6 32 l-30 -6 q-16 4 -16 8 l0 4 l2 0 l14 -4 l4 0 l60 24 l4 0 ZM110 64 l2 0 q8 4 24 26 l0 6 q0 4 -6 4 q-20 0 -20 -22 l0 -14 ZM84 76 l0 -6 l16 -6 l4 26 l-6 0 q-14 -10 -14 -14 ZM170 80 q8 0 22 -18 l0 -2 l-6 -6 l-4 0 l-18 20 l6 6 Z" /><glyph glyph-name="" unicode="&#x672b;" d="M118 191 q6 0 12 -11 l-4 -34 l0 -4 l4 0 l20 6 l4 0 l4 -4 l0 -2 q-18 -19 -22 -19 l0 -2 q2 -7 20 -15 l0 -2 l-30 -17 q-2 -9 -6 -9 l4 -33 l10 0 l8 2 q64 -17 64 -36 l0 -5 l-6 0 q-24 23 -66 32 l-4 0 l-4 -2 l-2 0 l2 -8 q0 -49 -8 -49 l-2 0 q-36 36 -36 49 l-2 2 l-2 0 q0 -6 -14 -15 l-2 0 l-6 4 q38 33 46 49 l-2 0 q-20 -13 -26 -13 l-4 7 l0 4 l48 48 l0 11 l-32 -15 l-6 2 l-14 -2 q-14 5 -14 9 l8 2 l8 -2 l2 2 l2 0 l2 -2 l2 0 q14 0 46 23 l0 26 l2 10 l-2 2 l-2 -2 l-6 0 l0 9 q0 4 6 4 ZM126 129 l0 -4 l10 9 l0 2 q-10 -3 -10 -7 ZM122 98 l0 -3 l2 0 q18 8 18 11 l-10 8 l-2 0 q-8 -1 -8 -16 ZM80 72 l0 -2 q34 15 34 28 l0 2 l-4 0 l-30 -28 ZM110 66 l-20 -26 q26 0 26 9 q0 17 -6 17 ZM88 30 l0 -2 q0 -16 26 -32 l2 0 l2 10 l0 15 l-2 15 q-28 -2 -28 -6 Z" /><glyph glyph-name="" unicode="&#x672a;" d="M120 200 q10 -6 10 -12 l-4 -44 q16 -2 16 -6 l0 -2 q0 -4 -16 -12 l-2 -2 l0 -20 l18 6 l0 2 l-4 8 l2 2 q28 -2 28 -10 l0 -2 q0 -2 -32 -10 l-14 -10 l0 -32 q6 -6 56 -18 q26 -14 32 -24 l-4 -4 l-4 0 q-34 26 -78 30 l0 -6 l2 -30 q-4 -34 -8 -34 l-2 0 l-42 46 l0 4 l-2 0 q-14 -10 -20 -10 l-2 0 l-4 4 q34 20 54 58 l-4 0 q-26 -20 -34 -20 l-2 0 l-6 6 l0 4 q54 62 58 62 l0 6 l-26 -6 l-4 0 q-12 0 -16 8 l2 2 l0 2 l2 -2 l16 0 q32 4 32 16 l4 36 l-2 2 l-4 0 l-4 -2 l-2 0 l-2 2 l0 2 l12 10 ZM70 68 l2 0 l40 30 l0 10 l-2 0 q-6 0 -40 -40 ZM96 48 l2 0 q14 0 14 8 l-2 10 q-8 -4 -14 -18 ZM84 34 l0 -16 l26 -26 l6 0 l0 6 l-4 42 l-22 0 l-6 -6 Z" /><glyph glyph-name="" unicode="&#x793a;" d="M119 167 l13 -5 l23 3 q11 -4 11 -13 q-16 -15 -26 -15 l0 4 l5 7 l0 4 q-30 3 -30 13 l2 2 l2 0 ZM187 114 q23 -2 23 -7 l0 -2 q0 -6 -23 -6 l-6 4 l-2 0 l-26 -6 l2 -15 l0 -36 q-4 -43 -15 -43 l-2 0 q-12 10 -25 28 l4 4 q12 -17 23 -17 q1 13 5 13 l-2 2 l0 6 l2 11 l-2 13 l0 21 l-5 4 l-25 -10 l2 -11 l0 -2 l-6 -23 l2 -11 l-2 -2 l-7 0 q-4 0 -4 6 l11 36 l-2 2 q-43 -21 -51 -21 q-17 6 -17 11 l17 0 q110 51 131 51 ZM181 59 q36 -8 36 -34 l-2 -3 l-2 0 q-10 0 -22 24 q-19 5 -19 8 l0 2 l9 3 Z" /><glyph glyph-name="" unicode="&#x51fb;" d="M136 186 q10 0 14 -26 l-2 -16 l2 -10 l16 2 l2 -2 l0 -6 q-22 -14 -22 -22 l-2 -18 l0 -6 l46 12 l18 0 l10 -12 l0 -2 l-2 -2 l0 -2 l-34 4 q-42 -4 -42 -20 l0 -28 l4 0 l32 6 l0 2 l-2 6 l6 2 q28 -12 28 -52 l0 -8 l-4 -4 l-2 0 q-10 0 -16 34 l6 2 q0 8 -12 16 l-64 -28 q0 -2 -28 -14 l-8 6 l0 2 q0 10 10 32 l-4 10 l-32 -14 l-8 0 l-8 8 l4 4 l8 -2 l84 40 l-2 2 l2 12 l0 6 l-2 0 l-36 -20 l0 2 l22 22 l0 2 l-10 2 l-2 -2 l-2 0 l-8 6 q0 4 36 8 q8 6 8 20 l0 2 q0 22 -10 38 l6 6 ZM90 44 q10 0 10 -12 l-8 -22 l4 0 q30 12 30 28 q4 0 6 26 l-2 0 q-36 -12 -40 -20 Z" /><glyph glyph-name="" unicode="&#x6253;" d="M84 182 l2 0 q6 0 10 -18 l-6 -20 q12 -16 28 -20 l0 -2 q0 -6 -26 -8 l-6 -8 l0 -18 l22 18 l4 -4 q-30 -24 -30 -46 l0 -12 l-2 -2 l4 -20 l-6 -4 q-6 0 -10 26 l-2 2 l-2 0 q-14 -12 -22 -12 l-2 0 l-6 6 q0 4 26 16 q18 16 18 38 l0 10 l-36 -18 l-6 0 l-6 6 l0 2 l2 4 l0 2 l10 -2 q40 12 40 30 l2 32 l-6 8 l0 8 l6 6 ZM222 128 l4 -6 l-4 -4 l-12 0 q-38 -4 -38 -10 q6 -8 6 -62 q0 -40 -22 -58 l-2 4 l-2 0 q16 30 16 64 q-2 46 -8 46 l-40 -14 l-8 0 l-4 4 l0 6 l10 2 l0 -2 q68 30 104 30 ZM72 58 l-2 -8 l2 -2 l4 0 l0 10 l-4 0 Z" /><glyph glyph-name="" unicode="&#x5de7;" d="M198 165 l4 -4 l0 -2 q-32 -46 -43 -68 l3 0 q22 14 36 15 l4 0 q15 -8 15 -28 q0 -65 -53 -85 l-9 -2 l-4 0 l0 2 q53 31 53 68 l0 32 l-11 2 l-46 -23 l-5 8 l34 64 q-41 -21 -42 -26 q-60 -80 -76 -80 l-5 6 l0 4 q0 15 24 24 l6 42 l-2 0 q-21 -13 -30 -13 l-8 0 l-4 5 l4 4 l2 -2 l57 29 l4 0 l5 -4 l0 -4 q0 -4 -11 -4 q-9 -12 -13 -41 l0 -6 l2 0 l47 51 l0 2 q-6 8 -6 15 l2 2 l2 0 l11 -8 l48 25 l5 0 Z" /><glyph glyph-name="" unicode="&#x6b63;" d="M132 143 l6 0 l5 -4 l0 -4 q0 -5 -22 -7 q-46 -30 -46 -61 l-2 -2 q-2 -13 -5 -13 q4 -13 7 -13 q73 3 76 11 q0 8 -28 23 l-12 -4 q-13 5 -13 19 l0 2 l4 4 q5 0 5 -10 l2 -2 l6 0 q23 23 53 29 l6 0 q11 -5 22 -19 l0 -8 q0 -4 -34 -9 l-2 2 l0 3 q21 9 21 12 l-13 11 q-24 -6 -38 -21 l0 -5 q7 0 42 -31 q0 -9 -97 -19 q-15 3 -15 19 l0 4 q11 59 27 59 l7 9 l-2 2 l0 2 l-2 -2 l-9 0 q-16 0 -17 6 l0 2 l11 -2 l2 0 l55 17 Z" /><glyph glyph-name="" unicode="&#x6251;" d="M162 177 q6 0 6 -9 q-6 -47 -6 -80 l2 -2 l9 0 q46 0 46 -17 l2 -11 l-6 -4 q-9 6 -28 11 l0 4 q0 4 7 4 l0 2 l-28 4 l-2 0 l-4 -4 l-2 -51 l4 -49 l-2 -2 l-4 0 l-5 5 l0 99 l2 13 l-2 2 l7 66 l-2 2 l-3 0 q-31 -32 -33 -51 q-11 0 -26 -38 l0 -47 l2 -10 l-2 -2 l-8 0 q-5 19 -19 19 l-17 -19 l-5 0 l-6 6 l0 6 q32 20 51 64 l0 8 l-2 0 q-33 -19 -43 -19 l-4 0 l-6 7 q0 4 6 4 l2 -2 l2 0 q47 20 47 29 l4 39 q-8 0 -8 4 q1 13 6 13 l6 0 q5 0 7 -11 l-4 -30 q4 -9 8 -10 l2 0 l49 57 ZM73 39 l13 -8 l2 12 l-2 2 l0 3 l2 8 l0 4 l-2 0 q-5 0 -13 -21 Z" /><glyph glyph-name="" unicode="&#x529f;" d="M166 157 l4 0 q14 -3 14 -23 l0 -2 l2 2 l8 0 q16 0 28 -15 l0 -2 q-16 -66 -52 -100 l-6 -4 l-2 0 q-14 0 -14 53 l-20 -23 q-4 0 -4 6 l32 59 l-2 0 l-22 -4 l-2 2 l0 2 l34 17 l6 19 q-8 3 -8 7 l0 2 l4 4 ZM84 129 l4 0 q4 0 4 -6 q0 -12 -10 -47 l2 0 l40 30 l4 0 l0 -2 q-30 -26 -68 -68 l-2 0 l-6 7 l0 2 q28 37 28 67 l-2 0 l-30 -10 l-6 0 l-8 6 l0 7 l12 -3 q8 0 38 17 ZM152 74 l4 -8 l-2 -2 l0 -2 q4 -36 10 -36 q38 43 44 89 l-10 10 q-26 0 -38 -36 q-4 0 -8 -15 Z" /><glyph glyph-name="" unicode="&#x53bb;" d="M143 180 q11 -3 11 -14 l-5 -30 l9 -6 l2 2 l4 0 l6 -7 l-23 -17 l-4 -21 l4 -6 q43 21 55 21 l5 0 l4 -4 q-25 -13 -83 -68 l-6 -9 l4 0 q32 17 49 17 l0 3 l-7 12 l2 2 l3 0 q25 -15 25 -53 l0 -8 l-4 -4 l-2 0 l-7 4 l2 8 l-6 30 q-12 0 -68 -30 l-2 0 l-4 7 q0 18 34 44 l27 26 l0 2 q-23 -10 -31 -21 q-16 0 -41 -19 q-27 -22 -42 -22 l-4 0 l-5 5 l0 10 q5 9 13 9 l0 -5 l-4 -6 l0 -2 l2 0 q78 34 78 53 l3 15 l-26 -7 q-10 4 -10 9 l0 2 l12 0 q25 0 28 30 l-2 2 l4 34 l-9 6 q0 5 9 6 Z" /><glyph glyph-name="" unicode="&#x7518;" d="M149 164 q19 -10 19 -22 l-2 0 l2 -2 l0 -40 l36 6 q10 -6 11 -10 l0 -4 l-15 0 l-17 4 q-15 0 -15 -24 l0 -20 l-2 -2 l2 -2 l-2 -10 l2 -2 l0 -2 q-6 -28 -11 -28 l-8 14 l-6 0 l-32 -8 l-9 0 q-4 0 -4 6 l2 2 l-2 10 l0 10 l2 2 l-4 24 l-2 0 l-36 -8 l-2 0 l-15 4 l0 4 l8 0 q24 0 47 16 l0 34 l-11 14 l0 2 l5 4 q17 -16 17 -24 l0 -28 l4 0 q23 80 38 80 ZM119 88 l2 -2 l2 0 l37 12 q-2 56 -13 56 q-14 0 -28 -66 ZM111 56 l2 -2 l2 0 q16 8 25 8 l5 -4 l0 -2 q0 -6 -34 -8 l0 -6 l2 -8 l-2 -10 l0 -4 l4 0 q13 10 40 10 l2 12 l-2 10 l5 30 l-3 6 l-2 0 q-42 -10 -42 -16 l-2 -16 Z" /><glyph glyph-name="" unicode="&#x4e16;" d="M160 141 l10 0 q16 0 16 -14 l-6 -22 l2 -2 l2 2 l28 0 q10 0 14 -8 l0 -6 q-12 0 -20 6 l-14 0 q-20 0 -40 -32 l-12 -13 l0 -2 l30 5 l2 -3 q0 -4 12 -4 l2 -2 l0 -8 l-4 -5 l-18 7 l-20 0 l-34 -11 l0 2 l-2 -2 l-6 0 q-16 24 -16 32 q-12 0 -34 -15 l-10 0 l-12 9 l0 4 l18 -2 q34 14 34 21 l-6 34 l2 0 q4 -1 14 -34 l2 0 l12 8 l6 -2 l2 2 l0 7 l-4 17 l4 4 l4 -4 l-2 -2 q6 -17 8 -17 l2 0 q4 23 34 50 ZM140 97 l0 -4 l2 0 q34 4 34 34 l-4 6 l-12 0 q-20 -18 -20 -36 ZM124 65 l-2 0 q-4 1 -8 11 q-8 0 -12 -24 l4 -8 l-6 -4 l2 -2 l4 0 q12 0 50 48 l0 2 l-2 0 q-22 0 -28 -21 l-2 -2 Z" /><glyph glyph-name="" unicode="&#x53e4;" d="M124 173 q12 0 20 -13 l0 -8 l-12 -51 l64 15 q14 -6 14 -11 l0 -4 q0 -4 -6 -4 l-18 6 q-62 -8 -62 -28 l-6 -25 l0 -4 l2 0 q28 23 42 23 l2 0 q12 0 16 -11 l0 -6 l-18 -27 l0 -5 q12 0 12 -6 l0 -4 l-4 -5 l-10 3 l-40 -11 q-14 20 -14 28 l4 27 l-2 2 l0 2 l8 28 q-50 -23 -58 -23 l-2 0 q-8 4 -10 12 l2 2 l10 -2 q12 0 64 28 l10 53 l0 2 l-12 13 l4 4 ZM122 29 l0 -21 q42 21 42 46 l0 2 q-24 -5 -42 -27 Z" /><glyph glyph-name="" unicode="&#x8282;" d="M154 192 l10 0 q10 0 14 -8 l0 -3 q0 -8 -22 -38 l2 0 q28 4 28 7 q42 -4 42 -13 l-4 -4 l-38 8 q-48 -8 -48 -23 l-24 -30 l0 -2 q44 26 66 26 q6 -1 14 -17 q-28 -51 -42 -51 q-10 0 -10 -5 l0 -28 q-2 -53 -10 -53 l-2 2 l2 64 l0 5 q0 13 -10 36 q10 3 10 6 l0 7 l-2 2 l0 2 q-22 -15 -30 -15 l-6 6 q32 43 36 53 l-2 0 q-16 -3 -24 -14 q-16 0 -58 -22 l-4 0 q-8 0 -14 11 l4 4 l6 -4 l2 0 q48 14 48 21 l-2 45 l6 4 l6 -6 l-2 -7 l4 -27 l6 0 l10 23 l4 0 l0 -2 l-4 -19 l2 0 q34 0 48 51 l-10 0 l-14 -11 l-2 0 l-4 4 l18 15 ZM140 88 l2 -10 l0 -19 l4 -5 q20 0 34 43 l-4 4 q-14 -1 -36 -13 Z" /><glyph glyph-name="" unicode="&#x672c;" d="M142 200 q6 0 8 -17 l-2 0 l2 -2 l0 -2 l-2 -2 l0 -2 l42 -15 l0 -4 l-2 -3 l0 -2 l-8 2 q-44 -11 -44 -31 l-12 -22 l4 0 q30 13 58 17 q18 -2 18 -6 l0 -2 q-38 -29 -38 -34 q8 -6 20 -6 l18 2 l4 -7 l0 -2 q0 -3 -32 -8 l-2 -2 q-6 0 -6 -5 l-2 -27 q0 -48 -16 -70 l-2 0 l8 57 l0 2 l2 2 l-2 2 l0 13 q0 15 -4 15 l-44 -32 l-2 0 l-2 2 l0 5 q0 11 50 63 l0 4 l-4 7 l0 2 l4 4 l2 0 l10 -6 q18 13 20 19 l-4 0 q-76 -17 -76 -38 q-38 -49 -54 -49 l-4 6 l0 11 l8 6 l2 -6 l-2 -6 l2 0 q16 3 36 38 l-2 0 l-6 4 q26 10 38 42 l4 11 l-4 0 q-22 -13 -28 -13 l-18 0 l-6 7 l0 2 l10 -2 l2 0 q54 11 54 34 l2 21 l-2 19 l4 4 ZM148 164 l-4 -15 l2 0 q18 6 18 11 l-16 4 ZM128 37 l2 0 l26 19 l-2 8 l-2 0 q-24 -22 -24 -27 Z" /><glyph glyph-name="" unicode="&#x53ef;" d="M209 167 q24 -6 24 -10 l0 -2 q0 -7 -62 -9 l-2 -8 l2 -2 l0 -2 l-2 -3 l0 -2 l2 -6 l-2 0 l2 -6 l-2 -3 l0 -2 l2 -6 l-2 -2 l2 -9 l2 -63 q0 -35 -19 -49 l-27 13 l2 2 l0 2 l2 -2 l21 0 q9 0 11 42 l-5 83 l3 8 l-3 9 l-2 0 q-6 -1 -6 -17 l0 -11 l6 -8 l0 -4 l-46 -26 l-5 6 q26 27 26 32 l-2 0 q-26 0 -40 -53 l-5 0 q-4 0 -4 7 q0 41 38 74 l-4 0 q-37 -17 -78 -28 q-13 5 -13 9 l112 32 l74 14 ZM110 117 l2 0 l32 17 l0 6 q-16 0 -34 -23 Z" /><glyph glyph-name="" unicode="&#x5de6;" d="M160 180 q4 0 10 -12 l26 -16 l-4 -8 l-8 4 q-48 -12 -48 -34 q-50 -88 -96 -132 l-8 -2 l-2 2 l0 2 q10 0 56 70 l38 66 l-2 0 l-16 -4 l-8 0 l-14 12 l2 2 l4 0 l14 -6 q30 0 48 54 l2 2 l6 0 ZM158 164 l-6 -12 l0 -4 l20 6 l0 2 l-12 8 l-2 0 ZM174 92 q8 0 12 -8 l-18 -30 l0 -4 l38 4 q20 -12 20 -22 l-6 -4 l-2 0 q-22 14 -32 14 l-80 -20 l-6 8 q0 6 26 6 q30 14 38 34 l6 10 l-6 0 l-24 -8 l-2 0 l-4 6 l40 14 Z" /><glyph glyph-name="" unicode="&#x77f3;" d="M177 170 l6 0 l6 -6 q-54 -83 -54 -89 l2 -11 q10 9 66 32 q10 0 22 -15 l0 -4 l-26 -32 l0 -2 q18 -2 18 -8 l0 -2 l-4 -5 l-34 3 l-34 -9 q-20 0 -20 42 l-2 0 q-58 -79 -86 -110 l-4 0 l-4 4 l0 5 q4 19 10 21 l2 -6 l2 0 q42 45 80 106 l-2 14 l2 3 l2 0 l2 -7 l8 0 l36 59 l0 5 l-2 0 l-24 -15 q-16 0 -18 19 l6 0 q2 0 6 -9 l4 0 q26 17 34 17 ZM143 41 l0 -8 q26 0 54 23 q14 19 14 25 l-6 5 q-60 -26 -60 -32 l-2 -13 Z" /><glyph glyph-name="" unicode="&#x5e03;" d="M113 182 l2 0 l9 -4 l15 4 q6 -8 6 -14 l-2 -12 l10 -2 l58 6 l15 -12 l0 -4 l-5 -4 l-51 10 l-34 -8 l-27 -54 l4 -4 q19 6 23 14 l0 10 l-4 6 l7 6 l8 -6 l0 -12 l21 2 l2 0 q19 0 19 -28 q-2 -38 -14 -38 l-26 14 l0 -2 l-2 -2 l2 -10 l0 -2 q0 -68 -10 -68 l-3 2 l3 64 l0 28 l-3 20 q-21 -4 -27 -10 l2 -2 l0 -2 l-2 -18 l4 -14 l-6 -4 l-9 8 l2 38 l-2 0 q-32 -34 -46 -34 l-2 2 l0 2 q46 30 70 88 l-70 -26 l-13 0 l-7 6 l0 2 l3 2 l0 2 l10 -2 l11 0 q17 12 74 28 l4 20 l0 2 l-8 -2 q-10 4 -11 8 l0 6 ZM147 78 q1 -18 4 -18 l22 -8 l4 14 q0 28 -7 28 l-8 0 q-15 0 -15 -16 Z" /><glyph glyph-name="" unicode="&#x9f99;" d="M98 174 q10 0 16 -11 l0 -13 l-6 -36 l2 0 l16 11 l-6 6 l0 5 l6 0 l10 -7 l2 2 l2 0 q10 -4 10 -8 l0 -2 l-40 -17 q-14 -12 -42 -64 q-18 -30 -30 -42 l-4 0 l-4 4 l0 2 q0 13 12 21 l4 -4 l32 55 l0 5 l-2 0 l-6 -5 q-18 0 -28 13 l6 2 l18 -2 q38 11 38 66 l-2 6 l-4 0 l-8 -4 l-4 4 q4 13 12 13 ZM174 159 q12 -7 12 -23 l-4 -5 l-4 0 q-10 0 -10 17 q-14 5 -14 9 l2 2 l18 0 ZM120 100 l6 -11 l-8 -45 l2 0 q22 13 34 37 l0 4 l-4 6 q0 4 6 4 q10 -3 14 -10 l0 -4 q-4 -9 -52 -51 q0 -19 28 -22 l62 0 q4 0 4 20 l2 0 l-2 2 l0 2 l2 2 l-2 2 l0 2 l2 2 l-2 2 l0 7 l2 2 l-2 2 l0 13 l2 0 q6 0 6 -28 l6 -34 q-10 -8 -30 -8 l-40 0 q-42 0 -48 29 l-4 0 l0 5 q4 0 10 59 l-4 4 q0 5 10 7 Z" /><glyph glyph-name="" unicode="&#x5e73;" d="M167 186 l4 -4 l0 -4 q0 -6 -26 -10 l0 -4 l7 -14 l-2 -8 l2 -12 l2 0 q10 6 23 30 l9 -10 l0 -4 l-34 -34 l0 -8 l51 8 l6 -2 l6 2 q17 -12 17 -16 l-6 -4 l-2 0 q-8 6 -26 8 q-48 -4 -48 -14 l2 -4 l-2 -20 l0 -72 q-3 -36 -9 -36 l-4 4 l0 8 l2 2 l-2 2 l2 12 l0 44 l-2 28 l2 22 l0 6 l-4 6 l-5 0 q-22 -6 -80 -34 l-15 -4 l-2 0 l-9 8 l0 4 l11 0 q15 0 89 40 q17 16 17 20 l-2 28 l0 2 l-6 4 q-16 -10 -28 -26 l0 -14 l21 12 l0 -2 l-21 -26 l-4 0 l-7 6 l0 18 q0 14 24 34 l0 2 l-11 0 q-15 0 -17 6 l72 20 l5 0 Z" /><glyph glyph-name="" unicode="&#x706d;" d="M134 170 l10 0 l6 -6 l0 -2 q-2 -4 -36 -14 l2 -16 l0 -18 l-2 -26 q18 -12 46 -42 q26 -24 56 -24 q14 -6 16 -12 l-2 -2 l0 -2 q-68 10 -68 24 l-46 48 l-4 0 l0 -2 q0 -30 -86 -76 l-2 0 l0 2 q80 50 80 96 l2 14 l0 20 q0 10 -24 16 l-2 2 l0 4 l6 0 q26 0 48 16 ZM148 130 l10 0 l8 -6 l0 -2 q-28 -26 -34 -26 l-2 2 l0 2 l18 22 l-4 4 l4 4 ZM66 100 q4 0 4 -12 l2 0 l14 8 l6 0 l0 -4 q-16 -18 -26 -18 l-4 4 l0 18 l4 4 Z" /><glyph glyph-name="" unicode="&#x4e1c;" d="M142 186 q45 -29 59 -32 l2 -2 l0 -2 q0 -4 -33 -11 q-47 -21 -47 -27 l-17 -49 l0 -2 l4 -4 q32 10 32 31 l2 0 l-2 2 q2 22 6 22 q30 -10 30 -13 l0 -2 q-30 -23 -30 -43 l0 -29 q0 -16 7 -36 l-7 -5 l-2 0 q-13 11 -32 39 l3 2 l2 0 l19 -17 l2 0 l0 51 l-4 0 q-14 -13 -24 -13 l-8 0 l-7 6 q0 14 15 58 l0 2 q-38 -15 -46 -15 l-9 0 q-11 0 -15 8 l0 5 l2 0 l7 -5 l10 0 q64 14 64 36 q9 45 17 45 ZM144 173 q-8 -18 -13 -40 q47 15 47 19 q-1 5 -34 21 ZM155 97 l-2 -9 l2 0 l8 9 l-4 0 l-2 2 l-2 -2 ZM184 46 q30 0 30 -30 l0 -8 l-6 -7 q-9 5 -9 11 l-10 0 l-7 6 l17 7 l0 2 l-21 15 l6 4 ZM87 35 l4 -4 l-2 -8 l2 -9 l2 0 l9 7 l2 -3 l0 -6 l-15 -21 l-2 0 q-4 0 -6 15 l2 0 l-2 2 l0 15 q1 12 6 12 Z" /><glyph glyph-name="" unicode="&#x5317;" d="M138 168 q24 0 24 -43 l-2 -27 l2 0 q11 8 19 8 l4 -6 l0 -2 q0 -5 -11 -5 q-17 -9 -17 -19 l-4 -34 l2 -2 l34 4 q13 -3 13 -12 q-4 -4 -32 -7 q-21 -12 -29 -12 l-3 2 l0 2 l11 8 q-6 9 -6 24 l2 6 l-2 2 l0 2 l4 15 l-2 11 l6 40 l-2 11 l2 0 q-4 17 -10 23 l-11 -4 l0 6 l8 9 ZM73 129 q25 -11 25 -14 l0 -9 l-2 -13 l2 -8 l-2 -13 l2 -2 l0 -2 l-2 -9 l2 -2 l2 0 l19 15 l2 -2 l-31 -42 q-13 -21 -22 -26 l-2 0 l-6 7 l0 8 q0 4 15 6 q3 10 12 15 q0 26 -23 26 l-10 8 l4 6 l27 -6 l2 2 l0 26 q0 9 -19 25 l5 4 Z" /><glyph glyph-name="" unicode="&#x5362;" d="M126 192 q19 0 19 -30 l0 -8 l30 8 l4 -4 l0 -4 q-12 -16 -23 -16 l-4 4 q-9 -10 -9 -28 l4 -6 l41 12 l6 0 l8 -8 l0 -2 l-31 -28 l2 -2 l0 -6 q0 -4 -30 -10 q-32 -16 -32 -36 q-12 -30 -51 -70 l-6 0 l0 4 q47 54 51 90 l4 24 l-2 2 l-2 0 l-17 -10 l-8 0 q-4 0 -7 8 q4 10 13 10 l4 -4 l45 20 l-5 14 l7 34 q-2 22 -15 40 l2 2 l2 0 ZM120 62 q37 18 63 46 l0 2 q-61 -16 -61 -30 l-2 -18 Z" /><glyph glyph-name="" unicode="&#x4e1a;" d="M143 166 l2 0 l10 -10 l0 -10 l-2 -2 l2 -2 l-4 -48 l0 -8 l2 0 q15 6 26 20 l-13 14 l2 2 l2 0 q23 -4 23 -10 l0 -4 q0 -4 -44 -38 l0 -12 l4 -6 l34 4 q29 0 45 -24 l0 -4 l-5 -4 l-8 0 q-17 8 -26 18 l-16 0 q-28 0 -60 -8 l0 2 q-46 -14 -83 -32 l-10 6 l0 4 l2 2 l0 2 l8 -4 q34 18 73 28 l-3 16 l0 12 l-2 0 q-7 -6 -15 -6 l-4 0 l-6 6 l0 14 l6 6 q4 0 4 -14 q20 4 20 20 l0 14 l-3 10 l3 2 l0 2 l-11 16 l0 2 l11 0 q8 -2 8 -18 l0 -24 l4 -4 l7 4 l2 0 q0 -8 -13 -18 l0 -12 q1 -24 4 -24 l17 4 l-13 28 l3 4 l2 0 l6 -10 q11 0 11 76 l0 4 l-7 8 l0 2 l5 4 Z" /><glyph glyph-name="" unicode="&#x65e7;" d="M172 141 q24 -9 24 -15 q0 -95 -10 -95 l-2 0 q-18 14 -18 23 l-6 0 l-22 -6 l-2 0 q-14 0 -16 70 q14 11 52 23 ZM130 114 l2 -19 l2 0 l26 6 l4 -6 q0 -4 -30 -11 l0 -8 l4 -15 l2 0 l30 8 l12 -6 l2 0 l0 13 l2 40 q0 13 -16 13 q-40 -8 -40 -15 ZM60 122 l2 0 q12 0 24 -15 l0 -31 l4 -15 l6 4 l4 0 q-2 -16 -8 -23 l2 -13 l-6 0 q-12 0 -14 78 l-14 13 l0 2 Z" /><glyph glyph-name="" unicode="&#x5e05;" d="M147 190 l2 0 q19 -4 19 -18 l-2 -20 l2 -20 l2 0 l22 4 q7 0 25 -14 q-10 -68 -25 -68 q-11 0 -26 18 l-2 -2 l0 -2 q-3 -108 -11 -108 l-4 4 l4 94 l-2 10 l2 36 l0 2 q-25 -8 -25 -24 l0 -18 l-6 -6 l-3 0 l-4 4 l0 2 l2 54 l-2 2 l2 2 l5 0 q4 0 4 -12 l2 -2 l2 0 q20 10 25 18 l0 14 l-2 12 l2 12 l0 8 l-12 12 l4 6 ZM86 168 q6 0 12 -12 l-8 -74 l2 -4 l0 -2 q-6 -16 -6 -36 l0 -8 l2 -10 l-7 -4 l-2 0 l-4 4 l0 26 l13 96 l0 10 q0 4 -7 4 l-6 -2 l-2 2 l0 2 q4 8 13 8 ZM168 116 l0 -24 q13 -24 21 -26 q9 8 15 46 q0 8 -12 14 q-14 0 -24 -10 ZM43 118 l4 -10 l7 0 q0 8 4 8 l2 -8 q0 -14 -4 -14 l2 -2 l-2 -16 l0 -4 l2 -14 l-6 -4 l-3 0 q-4 0 -6 10 l2 24 l-6 28 l2 2 l2 0 Z" /><glyph glyph-name="" unicode="&#x5f52;" d="M87 162 l2 0 l19 -17 q0 -120 -30 -136 l-2 0 l0 7 q12 18 19 59 l-2 2 l4 55 q0 7 -15 26 l5 4 ZM180 145 l13 0 q19 -15 19 -28 l-19 -46 l12 -11 l0 -6 l-4 -4 l-13 0 l-2 2 l-46 -15 l-7 0 l-6 6 l0 9 l2 0 l6 -2 q49 13 49 33 q6 0 13 34 q0 14 -15 17 l-36 -14 l-6 0 q-5 0 -7 10 q9 0 47 15 ZM49 111 l10 -17 l9 13 l2 0 l2 -2 l0 -2 l-6 -32 l2 -2 l0 -9 l-7 -6 q-10 0 -17 55 l2 2 l3 0 ZM163 94 l2 0 l4 -4 l0 -2 q0 -7 -29 -11 l-5 4 q0 9 28 13 Z" /><glyph glyph-name="" unicode="&#x76ee;" d="M140 178 q32 0 32 -34 l7 -100 l0 -6 q-5 -46 -11 -46 l-2 0 q-10 0 -15 36 l2 2 l2 0 q5 -14 9 -14 l4 20 l-2 2 l0 6 l2 10 l-6 76 l2 0 q-4 36 -13 36 l-6 0 l-49 -16 l-7 0 l-4 6 l2 2 l53 20 ZM85 142 q9 -8 9 -18 l2 -2 l2 0 q21 14 30 14 l10 0 l5 -4 l0 -4 l-24 -26 l0 -2 l2 2 l15 0 l4 -4 l0 -8 l-27 -30 l4 0 l23 4 l7 0 l6 -6 l0 -2 l-8 -8 l-5 0 l-10 2 q-11 0 -38 -14 l0 -10 l-7 -6 q-5 0 -8 18 l6 82 l-2 20 l2 2 l2 0 ZM89 68 l3 -10 l0 -4 l2 0 q18 14 34 36 l-9 0 l-13 -10 l-2 0 l-6 8 l0 2 l28 36 l-3 0 q-31 -10 -31 -32 l-3 -26 Z" /><glyph glyph-name="" unicode="&#x53f6;" d="M152 174 q12 0 15 -10 l0 -50 l40 8 l5 -4 l0 -4 l-7 -6 l-15 0 l-23 -6 l0 -48 l-2 -20 l2 -2 l0 -2 q-5 -54 -11 -54 l-2 4 l0 16 l2 20 l-2 2 l0 2 l2 2 l-2 6 l2 58 q0 8 -4 8 q-25 -14 -32 -14 l-2 2 q-27 -22 -40 -22 l-2 0 l-4 6 l0 4 q25 24 25 34 q-34 -10 -34 -28 l2 -2 l0 -2 l-2 -2 l0 -2 l4 -14 l-6 -4 l-2 0 q-15 26 -15 52 l0 2 l2 0 q6 -2 6 -14 l3 0 q20 22 46 26 l5 0 l6 -8 l0 -8 l-2 -2 l0 -4 l10 0 q17 0 36 18 l0 44 l-4 4 l-6 -2 l-2 2 l0 4 l8 10 Z" /><glyph glyph-name="" unicode="&#x7532;" d="M155 174 q39 -10 39 -16 l0 -6 q-28 -48 -28 -62 q-23 0 -34 -12 l0 -14 q0 -50 -4 -74 l2 -10 l-2 -4 l-2 0 q-7 0 -7 28 l0 30 l0 10 l2 10 l-2 6 l2 0 q-2 14 -6 14 q0 -4 -27 -12 l-5 4 l0 2 l2 2 l0 2 q-8 0 -19 60 q-3 0 -4 10 l13 -4 l0 2 l-2 18 l2 2 l10 -2 q57 16 70 16 ZM128 158 q2 -22 6 -22 l7 0 l6 4 l2 0 l4 -4 l0 -4 q-16 -20 -21 -20 l0 -10 l6 0 q5 4 20 4 q21 34 21 44 l0 2 q0 6 -21 12 l-30 -6 ZM83 140 q2 -46 7 -60 q7 0 29 30 l-4 6 l-15 -8 l-6 0 l0 4 l25 20 l0 12 l-6 6 q-30 -4 -30 -10 ZM105 80 l2 0 q12 6 12 10 l0 4 l-4 0 l-10 -14 Z" /><glyph glyph-name="" unicode="&#x7530;" d="M166 154 q36 -16 36 -28 l-19 -85 q-11 -25 -15 -25 q-8 0 -17 28 l5 4 l10 -13 l2 0 q19 65 19 93 l-21 15 l-4 0 q-38 -3 -38 -8 l0 -19 q0 -4 19 -7 l0 -6 q0 -10 -17 -28 l0 -2 l34 2 l2 -2 l0 -8 l-4 -4 l-17 0 q-28 0 -60 -26 l-6 0 q-7 0 -13 57 q-8 10 -8 19 l2 3 l4 0 q10 0 19 -58 l5 0 q29 16 29 36 l-4 0 l-19 -10 q-9 3 -9 6 l32 17 l0 21 l-4 5 l-6 0 q-5 -5 -26 -9 q-15 5 -15 9 l0 2 l2 2 l0 2 l11 -2 l6 0 q45 19 85 19 ZM124 101 l-2 -9 l2 0 l6 7 l0 2 l-6 0 Z" /><glyph glyph-name="" unicode="&#x7531;" d="M121 178 q5 0 14 -15 l0 -6 l-2 -36 l2 -2 l3 0 l17 4 l12 0 q18 0 34 -19 q-13 -90 -32 -112 l-4 0 q-12 14 -21 40 l-11 0 q-44 -19 -53 -19 l-2 0 q-6 0 -8 38 q-5 34 -15 34 l0 2 l2 2 l0 2 q21 -8 21 -19 l-2 -2 l0 -2 l6 -38 l7 0 q32 18 32 38 l-3 0 q-16 -11 -23 -11 l-2 3 l0 4 q28 16 28 25 l2 7 l-2 6 q-26 -11 -41 -11 q-12 5 -12 9 l4 4 l13 -2 l38 13 l0 15 l2 23 l-9 23 l2 2 l3 0 ZM133 104 l0 -15 q19 -2 19 -6 l0 -9 l-21 -25 l0 -2 l11 0 q21 -4 21 -17 l-6 -6 l6 -13 l2 0 q13 21 21 78 l0 11 q-9 13 -23 13 q-30 -3 -30 -9 Z" /><glyph glyph-name="" unicode="&#x53ea;" d="M144 154 l6 0 q14 -6 18 -14 l0 -6 l-22 -26 l0 -2 q10 0 10 -4 l0 -2 q-16 -14 -52 -28 l-4 0 q-14 0 -22 64 l0 4 l6 0 l8 -28 l4 0 q0 28 42 36 l6 6 ZM100 100 l2 -12 l4 0 q48 34 48 50 q0 4 -8 4 q-42 -18 -42 -26 q0 -16 -4 -16 ZM180 64 l4 0 q24 -10 24 -42 l-2 -2 l-6 0 q-8 2 -8 24 l-16 16 l4 4 ZM54 48 l4 0 l0 -10 q0 -4 6 -4 l2 -2 l0 -2 l-2 -2 l2 -2 l0 -4 l-6 -6 l-4 0 q-6 0 -8 22 l0 4 l6 6 Z" /><glyph glyph-name="" unicode="&#x53f2;" d="M104 194 l2 0 q10 0 12 -25 l-2 -2 l2 -11 l-2 -27 l2 -2 l20 8 l4 0 q20 0 24 -19 q-18 -8 -22 -15 l6 -6 l0 -2 q0 -3 -28 -13 q-8 0 -16 -34 q22 -25 62 -47 q52 -8 58 -19 l-4 -4 q-12 6 -30 6 l-2 -2 l-2 0 q-40 10 -86 51 l-4 0 q-36 -34 -66 -34 l-2 2 l0 5 q30 4 58 31 l2 2 l0 5 q-32 14 -48 27 q0 5 6 5 l6 -3 l0 3 l-12 42 l4 0 q8 0 14 -28 l2 0 l8 15 q18 3 36 21 l0 47 q0 11 -6 11 l0 8 l4 4 ZM136 127 q0 -5 -8 -5 l-2 -2 q0 -4 -10 -4 l-2 -2 l0 -21 l2 0 l32 23 l0 4 q0 5 -12 7 ZM68 65 l8 0 q28 14 28 32 l0 6 l-2 2 q-34 -9 -34 -34 l0 -6 ZM88 57 l0 -3 l10 -2 l0 11 l-4 0 l-6 -6 Z" /><glyph glyph-name="" unicode="&#x5144;" d="M128 166 q22 -4 22 -12 l-14 -20 l0 -2 l4 -6 l0 -4 q-38 -30 -110 -118 l-2 0 l-4 6 l0 4 l58 66 l-4 12 l4 4 q0 30 -14 58 l2 0 q20 0 26 -36 l0 -12 q24 14 36 48 l-6 0 q-18 -14 -32 -16 l-2 0 l0 8 q6 0 36 20 ZM122 94 l6 -6 l-6 -30 l0 -8 q0 -30 30 -30 l10 0 q60 0 60 26 l0 36 l4 0 q6 -22 6 -56 q-22 -20 -58 -20 l-2 0 q-58 0 -58 34 l-2 0 l6 46 l-2 6 l2 2 l4 0 Z" /><glyph glyph-name="" unicode="&#x53eb;" d="M179 190 l2 0 q17 0 17 -22 l0 -50 l13 -14 l-11 -10 l0 -36 l-2 -8 l2 -2 l0 -2 l-2 -6 l2 -8 q-4 -64 -15 -72 l-4 0 l7 48 l0 58 l-3 10 l3 8 l0 2 l-5 4 l-38 -30 l-4 0 q-3 0 -7 8 l15 48 l-10 12 q0 4 8 6 q13 -4 13 -16 l-9 -34 l5 0 l32 22 l-3 4 l0 2 l3 8 l-3 20 l3 26 q-3 10 -7 10 q-2 -14 -6 -14 l-2 0 l0 14 q1 14 6 14 ZM107 124 q14 -6 15 -10 l-9 -22 l5 0 l8 6 l4 0 l4 -4 q0 -6 -36 -30 l-2 0 l-6 6 l0 6 q15 22 15 30 l0 4 q-26 -6 -26 -32 l-2 -16 l2 -14 l-2 -2 l-4 0 q-7 0 -15 56 q-13 6 -13 10 l7 4 q19 -6 19 -16 q13 14 36 24 Z" /><glyph glyph-name="" unicode="&#x56db;" d="M160 134 l0 -2 l2 2 l8 0 q28 0 40 -19 l0 -2 q-8 -50 -20 -79 l-6 -8 l-6 0 q-8 1 -24 29 l-6 2 q-20 0 -70 -19 q-18 0 -24 51 l-8 11 l0 2 l2 0 q18 0 20 -34 l6 -19 q44 15 58 15 l26 4 q8 -9 14 -25 l2 -2 l6 0 q14 38 18 69 q-12 13 -26 15 q-32 -1 -32 -12 l-2 -17 l2 0 l12 2 q8 -3 8 -7 l0 -2 q-10 -12 -20 -12 q-12 12 -12 23 l2 13 l-2 2 l-2 0 q-16 0 -16 -9 q-6 -40 -14 -40 l-4 6 l6 24 l-2 10 l-22 -2 q-14 1 -14 6 l0 5 l20 0 l80 19 Z" /><glyph glyph-name="" unicode="&#x751f;" d="M138 180 q20 -2 20 -18 l-5 -50 l2 0 q14 12 28 14 q5 0 6 -10 l-36 -16 l-2 -14 l0 -16 l23 10 l5 -10 q0 -12 -36 -52 l0 -2 l27 4 l9 0 q23 -6 23 -14 l0 -4 l-4 -4 q-17 0 -28 8 l-2 0 q-8 0 -53 -16 l-8 0 l-9 8 l0 2 q0 4 24 12 l10 12 l0 2 q-8 10 -23 10 l-2 2 l0 2 q0 6 12 6 q19 10 19 20 l3 18 l0 2 l-5 4 q-3 -8 -27 -14 l-9 0 l0 8 q23 0 43 24 l2 58 l-7 4 l-4 -4 l-2 6 q3 8 6 8 ZM81 116 l9 0 l10 -12 l0 -4 q-27 -44 -42 -56 l-4 4 l0 4 q27 30 34 52 l-7 6 l0 6 ZM149 46 l2 0 l9 10 l0 4 q-8 0 -11 -14 ZM132 38 l0 -2 l6 0 l0 8 l-2 0 l-4 -6 Z" /><glyph glyph-name="" unicode="&#x5931;" d="M118 186 l8 0 q12 -6 12 -24 l0 -2 l-2 -36 l2 -2 l22 8 l4 -6 q-32 -28 -32 -46 l2 0 q32 10 32 14 l-12 16 l2 2 l4 0 l22 -18 q0 -6 -42 -22 q-10 0 -22 -46 q-28 -36 -50 -36 l-2 2 l0 2 q48 26 48 56 l0 2 l-2 0 q-50 -32 -56 -32 l-6 4 l0 2 q72 70 72 78 l-2 0 q-22 -18 -30 -18 q-8 0 -14 44 l2 2 l4 0 l10 -32 l8 0 q26 16 26 20 l0 10 l2 24 l-2 2 l0 2 l2 6 q0 12 -6 12 l-6 -2 l-2 2 l0 8 l4 4 ZM86 48 l4 0 q28 16 30 24 l0 8 l-2 0 l-32 -32 ZM154 34 q32 0 52 -42 l0 -4 l-4 -4 q-14 20 -48 48 l0 2 Z" /><glyph glyph-name="" unicode="&#x4e18;" d="M124 170 l2 0 q27 -9 27 -13 l0 -6 l-44 -34 l-5 4 l0 2 l32 30 l-12 15 l0 2 ZM183 112 l6 -6 l-19 -19 l2 -6 q-2 -17 -14 -32 l0 -2 l42 2 l4 0 q20 0 32 -21 l0 -5 l-4 -4 l-34 11 q0 8 -7 8 q-43 0 -148 -36 l-15 -2 l-8 11 l2 2 l10 -2 l3 0 q13 0 76 25 l0 2 q-9 0 -9 41 l0 14 l-6 9 l6 6 l5 0 q6 -11 8 -27 q23 7 62 31 l6 0 ZM117 36 q26 0 43 43 l-5 8 l-34 -19 l-4 -32 Z" /><glyph glyph-name="" unicode="&#x4ee3;" d="M102 188 q10 0 20 -42 q12 -30 16 -32 l10 12 l-6 2 l0 6 l10 0 l16 2 l2 -2 l0 -4 q-30 -22 -30 -28 q8 -38 70 -98 l2 0 l-12 56 l4 0 l26 -76 l-2 -2 l-8 0 q-72 60 -78 96 l-10 18 l-32 -26 l-6 0 l-6 4 l38 32 q-4 34 -26 60 l-2 20 l2 2 l2 0 ZM178 172 q18 0 18 -24 q0 -4 -6 -4 q-20 2 -20 8 l0 4 l2 2 l0 2 l2 -2 l4 0 l0 4 q-6 0 -10 8 l2 2 l8 0 ZM74 150 q14 -2 14 -8 q0 -8 -22 -52 l2 0 q10 -6 10 -22 l0 -16 q6 0 6 -6 l-8 -28 l2 -12 l-6 -4 q-10 6 -10 24 q6 10 6 32 l0 8 q0 12 -6 12 q-10 -2 -26 -28 l-4 0 l-6 6 l0 2 q48 58 48 80 l0 2 l-4 6 l4 4 Z" /><glyph glyph-name="" unicode="&#x4ed9;" d="M86 160 l4 0 q16 0 16 -12 l-38 -60 l2 0 l6 2 q12 -10 12 -38 q-4 -42 -8 -42 q-8 0 -10 26 q8 18 8 38 q0 6 -14 10 l-20 -28 l-4 0 q-4 0 -4 6 q28 36 54 86 l-4 12 ZM144 152 q16 0 20 -12 l0 -18 l-4 -28 l2 0 l22 2 l2 -2 l0 -2 l-36 -16 l-34 -20 l-6 0 q-4 0 -4 6 l8 26 l-2 12 l2 4 l2 0 q8 -4 8 -16 l0 -4 l-2 -2 l0 -2 l2 -2 q28 12 28 36 l0 14 q0 10 -12 18 l4 6 ZM194 116 q24 -8 24 -28 l2 -28 l-2 -2 l-6 0 q-8 4 -8 16 l0 4 l4 6 l0 2 q0 12 -18 24 l0 4 l2 2 l2 0 Z" /><glyph glyph-name="" unicode="&#x4eea;" d="M79 170 l2 0 l10 -8 l0 -8 l-34 -58 q19 -4 19 -22 l0 -20 l7 -8 q-4 -46 -9 -46 l-4 0 q-6 0 -6 22 l6 42 l-2 2 l0 4 l2 2 l0 2 q0 8 -17 16 l-2 0 q-15 -26 -23 -32 l-3 0 l-4 4 l0 2 q36 50 60 90 l-7 12 l5 4 ZM168 164 l2 0 q13 -6 15 -14 q-11 -56 -24 -76 q74 -28 74 -56 l-6 -4 q-6 0 -23 26 q-40 20 -55 20 q-28 -26 -43 -26 q-25 8 -25 26 l6 4 q4 -20 19 -20 q13 0 32 20 q-11 8 -21 8 l-17 0 l-2 2 l-2 0 l-3 -2 l-2 2 l0 2 q0 6 36 6 l13 -4 l6 0 q24 26 24 74 l-9 8 l5 4 ZM123 142 q3 0 8 -16 l3 0 q3 0 6 8 l2 2 l2 0 l2 -2 l0 -2 q-4 -20 -10 -20 l-7 0 q-10 6 -10 28 l2 2 l2 0 Z" /><glyph glyph-name="" unicode="&#x767d;" d="M104 172 l3 0 q17 -5 17 -11 l0 -2 q0 -29 -34 -72 q7 -17 10 -61 l2 0 q38 15 49 15 q17 -7 17 -19 q6 0 15 67 l0 13 l-17 9 q-11 0 -45 -13 l-14 0 l-5 4 q15 0 47 17 l23 2 q9 0 28 -19 q-14 -78 -26 -104 l-2 0 q-13 0 -21 30 q-19 0 -51 -17 l-2 0 q-8 0 -15 59 q-12 19 -27 19 l0 2 l4 5 l2 0 l15 -2 q0 6 11 6 q21 32 25 55 l-9 17 ZM143 81 l4 -7 l0 -6 l-13 -13 l-2 0 l-8 7 l-15 -7 l-2 0 l-7 7 l43 19 Z" /><glyph glyph-name="" unicode="&#x4ed6;" d="M123 166 l9 -6 l0 -38 l2 0 q28 30 38 30 l8 -8 l0 -4 l-36 -58 l-4 0 q-10 8 -15 8 l0 -14 l-4 -6 l-2 0 l-11 12 l-2 0 l-2 -12 l0 -6 q0 -22 40 -22 l19 2 l2 -2 q75 4 75 22 l4 44 l6 0 l0 -42 l2 -8 q-2 -20 -68 -28 l0 2 l-2 -2 l-10 0 l-11 2 l-15 -2 l-8 2 l-6 -2 q-39 10 -39 30 q-9 -8 -17 -8 l-10 10 l2 2 l2 0 l6 -4 q13 10 17 20 l-2 36 l2 2 l2 0 q9 0 9 -20 l2 -2 l2 0 q8 4 11 14 l-2 18 l0 4 l6 0 l0 18 q-8 0 -8 4 q4 12 8 12 ZM57 164 q9 -2 13 -10 q0 -8 -34 -62 q21 -6 21 -26 l-6 -46 l2 -14 l-2 -2 l-4 0 q-9 0 -9 30 q9 16 9 32 q-2 14 -7 14 l-2 0 q-11 0 -25 -18 l-2 0 l-7 6 q51 62 51 86 l-4 6 q0 4 6 4 ZM129 104 q4 -10 13 -10 q9 10 21 42 l-2 0 q-10 -4 -32 -32 Z" /><glyph glyph-name="" unicode="&#x4ede;" d="M90 168 q17 -8 17 -20 l-34 -50 l0 -4 q13 0 15 -16 l0 -14 l-2 -10 q8 0 8 -4 q-9 -48 -12 -48 l-5 0 l-4 4 l0 2 l-2 30 l11 38 q-5 12 -9 12 l-4 0 l-26 -24 l-2 0 l-4 4 l0 2 q55 64 55 82 l-6 14 l2 2 l2 0 ZM190 138 l2 0 q20 0 27 -16 q-22 -110 -36 -110 q0 -6 -4 -6 q-19 0 -27 46 l-5 0 q-17 -38 -23 -38 l-2 0 l-2 2 l-2 0 q23 36 38 96 l0 4 l-17 -4 l-2 0 q-12 0 -15 8 l0 2 l4 4 l2 -2 l7 -2 l0 -2 l55 18 ZM168 124 l0 -12 l-14 -50 q13 -36 21 -42 q13 0 30 100 l0 2 q-4 8 -15 8 l-22 -6 ZM109 86 q4 0 4 -6 l3 -2 l4 0 q9 8 17 8 l2 0 l0 -4 q-16 -22 -28 -22 q-6 8 -6 20 l0 2 l4 4 Z" /><glyph glyph-name="" unicode="&#x74dc;" d="M116 177 l9 -8 q-31 -34 -51 -34 l-2 2 l0 2 q20 8 36 30 l-4 4 l12 4 ZM46 143 q20 -21 20 -29 l0 -17 q-16 -89 -41 -89 l0 4 q28 40 28 87 l0 6 l-11 32 l0 2 l4 4 ZM78 124 l5 0 q13 -15 23 -15 q68 -65 114 -65 l11 -9 l0 -2 l-4 -4 q-4 4 -41 6 q-30 10 -80 64 l-7 4 l-4 0 l0 -13 q0 -32 -8 -63 l0 -9 l25 30 l-13 19 l5 4 q11 -4 27 -32 l0 -4 l-4 -4 l-2 0 l-6 4 l-7 0 l-25 -42 l-4 0 q-7 0 -9 25 q8 25 11 76 q-5 19 -11 26 l4 4 Z" /><glyph glyph-name="" unicode="&#x4e4e;" d="M134 181 l2 0 q12 0 22 -13 l0 -2 q0 -5 -36 -15 l0 -6 q17 0 21 -30 l2 0 q15 12 15 23 q-7 0 -7 5 q3 6 13 6 l4 0 l7 -6 q0 -12 -32 -41 l2 -2 l0 -2 q30 11 59 11 q14 -6 15 -11 l0 -2 l-4 -4 l-4 0 l-4 4 l-3 -2 l-10 2 l-2 0 q-26 0 -47 -8 l0 -7 l2 -15 l-2 0 l2 -2 l0 -2 l-2 -2 l2 -2 l0 -26 q0 -63 -25 -63 l-4 6 l-3 -2 l-6 0 l-2 2 l-2 -2 l-2 0 l-11 2 l0 7 l2 0 q38 0 38 17 l2 23 l0 38 q0 15 -4 23 q-18 -3 -82 -36 q-15 3 -15 9 l0 4 l8 0 l81 32 l6 10 l0 15 q0 7 -13 28 l0 4 l-6 -4 l-11 0 l0 2 q0 5 34 19 l0 4 l-4 7 l4 4 ZM86 124 q3 0 8 -13 l2 0 l11 2 l2 -2 l0 -2 q-9 -15 -13 -15 q-15 6 -15 27 l3 3 l2 0 Z" /><glyph glyph-name="" unicode="&#x4ee4;" d="M111 190 l11 0 l4 -4 l0 -5 l-17 -27 q37 -16 96 -64 q44 -14 44 -19 l-2 -2 l-2 0 q-46 0 -87 45 q-22 17 -47 29 l-4 0 q-6 0 -23 -46 q11 6 21 6 l13 0 l6 -6 l0 -3 q-45 -36 -47 -53 l5 0 q34 30 65 30 q10 -4 11 -8 l0 -3 q-11 -19 -36 -46 l0 -2 l8 -21 q-4 -10 -8 -11 q-4 0 -19 38 l-9 11 l0 2 l9 0 q9 -9 17 -9 q21 30 21 38 l-6 0 q-16 0 -53 -31 l-5 0 q-9 4 -10 8 l0 2 q0 10 36 47 l2 2 l0 2 l-4 4 l-15 -4 l-4 4 q-37 -51 -73 -65 l-2 2 l0 2 q56 32 96 136 q4 0 4 10 l-4 4 l8 7 Z" /><glyph glyph-name="" unicode="&#x7528;" d="M170 175 q22 -10 22 -23 l0 -2 l4 -119 q-2 -36 -10 -36 q-10 2 -32 59 l2 2 l2 0 q20 -34 24 -34 l2 0 l0 7 q0 52 -6 80 l4 26 l0 6 q-4 23 -18 23 l-30 -6 l2 -10 l0 -15 l4 -5 l16 3 l2 -3 l0 -6 l-22 -25 l0 -9 l4 -4 l22 11 l4 0 l6 -7 l0 -2 q0 -4 -12 -4 q-22 -9 -22 -15 l-2 -25 l2 -9 l-6 -4 q-6 2 -6 13 l0 21 l-2 0 q-22 -15 -30 -15 l-4 0 l-4 4 l0 6 q38 37 38 47 l0 2 l-4 5 q-28 -13 -28 -17 l-20 -77 l-2 -2 l-2 0 q-6 0 -8 17 q6 0 22 55 l-6 40 l0 7 l4 0 q0 -11 12 -28 q32 14 34 19 l0 22 l-4 0 l0 2 l-22 -2 l-8 0 q-12 0 -12 6 l0 2 l2 0 q20 0 76 19 l12 0 ZM112 69 l2 0 q8 4 10 9 l0 4 l-2 0 l-10 -13 Z" /><glyph glyph-name="" unicode="&#x4e50;" d="M118 171 l4 0 q16 0 18 -7 l0 -2 q0 -9 -48 -27 l-6 0 l-4 4 q40 14 44 25 l0 2 l-8 0 l0 5 ZM114 132 q12 0 18 -12 l0 -13 l2 0 q34 13 42 13 l4 -7 q0 -6 -30 -10 l-18 -9 l2 -57 q0 -38 -14 -38 q-20 12 -26 32 l2 2 l2 0 l18 -19 l2 0 l2 25 l0 2 l-2 43 l-4 0 l-44 -32 l-8 8 l0 5 l10 23 l2 23 l-6 11 l2 2 l2 0 q10 0 12 -19 l-4 -28 l4 0 q32 18 34 24 l0 17 l-8 10 l4 4 ZM94 58 l2 -2 l0 -2 q-32 -38 -34 -38 q-10 3 -10 6 l0 17 l6 4 q4 0 4 -6 l4 0 q22 21 28 21 ZM168 58 q36 -3 36 -36 l-6 -4 q-14 6 -14 15 l2 6 q-20 9 -24 17 l6 2 Z" /><glyph glyph-name="" unicode="&#x5c14;" d="M102 180 l3 0 q16 -8 16 -12 q0 -11 -33 -75 l2 0 q55 30 72 30 q11 0 17 -10 l0 -3 q-31 -28 -53 -38 l2 -32 l0 -10 q0 -35 -11 -40 q-19 6 -32 27 l0 9 l3 0 l21 -22 l2 0 l4 5 l0 38 q0 25 -10 34 l0 6 l6 0 l8 -6 l7 0 q33 24 34 32 l-5 0 q-42 -16 -86 -49 l-3 0 l-6 6 l0 4 q47 64 49 92 l0 2 l-7 12 ZM75 53 l4 -4 l0 -2 l-8 -21 l2 -3 l0 -2 q-4 -14 -9 -14 l-2 0 l-4 4 l0 2 q11 40 17 40 ZM151 51 q33 -6 43 -19 l4 -19 l-7 -4 l-2 0 q-12 8 -25 29 q-8 0 -17 11 l2 2 l2 0 Z" /><glyph glyph-name="" unicode="&#x53e5;" d="M122 186 l10 -8 q-30 -80 -42 -86 l-2 0 l-6 6 q36 60 36 78 l-2 8 l2 2 l4 0 ZM176 138 l4 0 l14 -14 l0 -2 q-6 -114 -16 -114 q-12 -24 -16 -24 l-2 0 q-20 16 -24 38 l2 0 q2 0 18 -22 l2 0 q24 24 24 120 q-2 8 -12 8 l-38 -12 l-8 0 l-4 6 l0 6 l12 -2 q28 12 44 12 ZM126 96 q12 0 18 -10 l0 -8 l-12 -18 l8 -8 l0 -6 q0 -2 -28 -8 q0 -4 -14 -4 l-12 -2 q0 -8 -4 -8 q-8 0 -14 48 l-6 12 l2 2 l2 0 q4 0 16 -16 q0 8 44 26 ZM86 46 l0 -4 l2 0 q38 18 38 42 q-40 -18 -40 -38 Z" /><glyph glyph-name="" unicode="&#x5916;" d="M136 188 l4 0 q6 0 10 -19 l0 -30 l-2 -44 l2 -8 l26 0 q44 -6 44 -22 l2 -2 l0 -2 l-6 -6 l-44 23 l-18 0 l-6 -6 l0 -5 l-2 -82 l2 -2 l0 -2 l-6 -9 l-2 0 l-6 6 l0 5 l6 38 l-2 6 l2 23 l-2 9 l2 15 l-2 6 l2 2 l0 2 l-2 9 l2 51 l0 17 q0 12 -10 23 l6 4 ZM72 173 l4 0 q12 0 20 -12 l0 -7 q0 -9 -28 -57 l2 0 q16 15 24 15 l14 0 q6 0 6 -9 l-32 -61 q-24 -32 -40 -32 l-4 0 l-4 4 q0 4 18 9 q20 20 20 30 l-34 14 l0 5 q48 67 48 87 l0 2 q0 5 -14 8 l0 4 ZM58 74 q0 -3 20 -13 l2 0 l14 36 l0 2 q-10 0 -36 -25 Z" /><glyph glyph-name="" unicode="&#x5904;" d="M128 184 l2 0 q14 -4 14 -16 l2 0 q-8 -54 -8 -96 l0 -6 l2 -26 l-2 -2 l-4 0 q-8 4 -8 14 l2 16 l-2 8 l8 92 l-6 16 ZM58 150 q22 -2 22 -10 l0 -8 l-6 -22 l2 0 q8 6 16 6 l8 0 l6 -6 l0 -4 q-14 -24 -14 -46 q74 -62 130 -62 q22 -2 22 -8 l-4 -4 q-64 0 -92 18 l-66 46 q-32 -54 -58 -54 l-6 0 l-6 4 q30 0 60 54 l0 4 q0 6 -30 12 l-10 -4 l-2 2 l0 2 q22 14 32 40 q8 24 10 24 q0 12 -14 12 l0 4 ZM62 74 l16 -4 l0 2 q10 18 10 28 l0 2 l-6 0 q-20 -16 -20 -28 ZM144 96 l34 0 q16 -6 16 -24 l-6 -4 q-24 2 -24 6 l0 2 q0 4 8 4 l0 4 l-28 6 l0 6 Z" /><glyph glyph-name="" unicode="&#x51ac;" d="M94 191 q16 -2 17 -8 l-4 -17 l0 -2 l4 0 l7 4 l17 0 q6 0 6 -8 l-23 -49 l2 -2 l25 0 q59 0 70 -21 l0 -5 l-32 -8 l-4 6 l9 9 q-21 8 -43 8 l-31 0 l-47 -68 l-9 -2 q-17 11 -17 41 q0 9 62 36 l23 50 l-2 3 q-18 -4 -53 -49 l-4 0 l-4 4 l0 2 q33 40 36 66 q-9 0 -9 6 l4 4 ZM50 62 q4 -21 8 -21 q13 11 32 44 l0 3 l-2 0 q-38 -18 -38 -26 ZM103 62 l15 0 q17 -9 17 -13 q-11 -14 -21 -19 l-3 0 l-4 5 l7 10 l0 2 q0 3 -9 7 l-8 -5 l-9 3 q0 3 15 10 ZM105 13 q37 -16 38 -23 l0 -4 l-6 -7 l-2 0 q-10 13 -21 13 q-13 13 -13 19 l2 2 l2 0 Z" /><glyph glyph-name="" unicode="&#x9e1f;" d="M128 194 q20 -6 20 -12 l0 -2 l-22 -26 l6 0 q8 10 20 10 l8 0 l10 -6 l-14 -74 l2 0 l30 8 l8 0 q16 0 28 -20 q-4 -26 -6 -26 l2 -2 q-10 -48 -30 -68 l-4 0 q-10 8 -22 34 l6 0 l16 -16 q16 12 24 78 l-14 8 q-28 0 -84 -26 l-4 0 l-6 6 l0 52 q0 20 -16 36 l-2 6 l6 6 l12 -12 q16 8 26 34 l-4 4 l0 2 l4 6 ZM128 144 l-4 0 l-6 4 q0 -4 -6 -4 l0 -6 l2 -10 l14 0 q14 -8 14 -20 l-2 -2 l-4 0 l-22 14 l0 -52 l6 0 q18 8 18 12 l-6 18 l2 2 l2 0 l8 -6 q6 14 10 48 l-2 10 l-24 -8 ZM168 48 l2 0 l8 -8 l0 -2 l-4 -4 l-16 2 l-58 -12 q-46 -22 -56 -22 q-8 2 -12 16 l2 2 l2 0 l12 -8 q84 36 120 36 Z" /><glyph glyph-name="" unicode="&#x4e3b;" d="M102 170 l20 0 q22 -2 22 -10 l0 -4 l-4 -4 l-6 0 q-8 10 -32 14 l0 4 ZM168 132 l12 -8 l0 -4 l-2 -2 l0 -2 l-24 2 l-4 0 l-16 -6 l0 -32 l18 4 l6 0 l6 -6 q0 -14 -34 -52 l4 0 l36 2 q16 -10 16 -20 l-4 -2 l-8 0 q-18 4 -18 10 q-32 -4 -54 -16 l-10 0 l-6 6 l0 2 l20 10 l16 18 l0 2 q-28 6 -32 14 l0 2 q0 4 16 4 q20 10 20 24 l0 16 l-4 4 l-46 -14 l-2 0 l-4 4 q0 4 22 8 q66 32 76 32 ZM132 58 l0 -8 l2 0 q4 0 12 20 l-2 0 q-8 -4 -12 -12 Z" /><glyph glyph-name="" unicode="&#x7acb;" d="M110 168 l20 -6 l14 4 q8 0 12 -8 l0 -2 q0 -4 -6 -4 l-14 2 l-6 -2 q-12 2 -20 12 l0 4 ZM156 134 l12 0 l8 -6 l0 -2 q-4 -6 -44 -20 q-28 -20 -30 -36 l0 -10 l4 0 l14 12 l4 -4 l0 -2 l-16 -26 l-8 0 q-6 0 -10 26 l2 0 l-2 2 l0 2 q0 6 16 28 l-18 -2 q-10 4 -10 8 l2 2 l2 0 l12 -2 q46 18 62 30 ZM160 100 q10 -2 10 -14 q0 -12 -32 -40 l4 0 l36 4 q34 0 50 -22 l0 -2 l-6 -6 l-52 16 q-28 0 -116 -34 l-6 0 q-16 0 -20 10 l0 2 l2 0 l12 -2 q10 0 64 20 l10 14 q18 0 42 42 l0 2 l-2 0 l-12 -4 l-2 2 l0 2 q0 6 18 10 Z" /><glyph glyph-name="" unicode="&#x51af;" d="M160 184 q17 -2 17 -9 l0 -6 q-25 -74 -28 -74 q-9 0 -25 17 l-9 -36 l2 0 q37 21 62 21 q40 -2 40 -13 l0 -17 q0 -35 -30 -76 l-6 -5 q-18 0 -36 37 l2 2 l2 0 q23 -26 28 -26 q27 32 27 77 q-3 10 -15 10 l-10 0 q-32 0 -70 -27 l-4 0 l-5 4 l13 70 l-4 13 l0 8 q-9 0 -9 6 l0 5 l2 0 l7 -5 q39 24 49 24 ZM117 152 q9 0 11 -28 l15 -15 l2 0 q17 45 17 62 l-5 4 l-2 0 q-35 -17 -38 -23 ZM49 141 l2 0 q24 -3 24 -10 q-2 -9 -9 -9 q-9 7 -29 11 l0 2 q2 6 12 6 ZM94 129 l2 -3 l-47 -80 l-6 -2 l-6 8 l0 21 l6 0 l2 -8 l4 0 q22 41 45 64 ZM151 56 l2 0 q16 0 17 -6 l0 -2 l-4 -4 l-19 2 l-72 -28 l-9 0 q-10 7 -10 15 l2 2 l2 0 q0 -3 11 -6 q34 16 80 27 Z" /><glyph glyph-name="" unicode="&#x7384;" d="M107 173 l13 -6 l19 0 q5 -2 11 -15 q-5 -13 -15 -13 l-2 2 l0 2 l2 11 q-18 0 -30 17 l2 2 ZM217 129 l15 -15 l-4 -5 l-2 0 l-28 7 l-59 -11 l2 -10 l-25 -39 l4 0 q36 13 36 24 l4 17 l2 2 l7 0 l6 -7 q0 -8 -40 -65 l2 0 q34 5 34 15 l-4 12 q17 0 25 -34 l0 -19 l-4 -4 l-4 0 l-7 6 l2 11 l-4 13 l-68 -26 l-2 2 l0 7 q0 10 21 25 l9 13 l-5 0 q-18 -11 -25 -11 l-2 0 l-9 9 l34 51 l-2 2 q-9 0 -85 -36 q-11 0 -17 10 q17 3 111 41 l82 15 Z" /><glyph glyph-name="" unicode="&#x5170;" d="M159 175 q9 -3 9 -6 l0 -4 q0 -11 -51 -60 l2 0 q26 13 42 15 q10 -4 11 -8 l0 -2 q0 -3 -19 -9 l-28 -19 l-2 2 l0 4 l2 3 l0 2 l-6 0 q-12 -9 -25 -11 q-24 2 -24 6 q0 5 26 7 q49 48 61 68 l-4 10 l6 2 ZM92 154 l8 -6 l23 6 l0 -6 q-8 -11 -19 -11 l-2 0 q-17 2 -17 15 l2 2 l5 0 ZM161 82 l7 -8 l0 -2 q-25 -20 -47 -20 q0 -4 -19 -6 q-15 0 -17 6 l4 5 l3 -2 l2 0 q8 0 65 27 l2 0 ZM204 38 l19 -15 l0 -4 l-4 -5 l-2 0 l-34 13 l-2 0 l-34 -4 l0 2 l-100 -30 q-9 3 -13 11 l2 2 l0 2 l15 -2 q86 30 138 30 l15 0 Z" /><glyph glyph-name="" unicode="&#x534a;" d="M125 200 l4 0 q17 0 17 -38 l0 -6 l13 4 q15 0 21 -10 l0 -4 q-24 -28 -30 -28 l0 -4 l30 2 l4 -6 l0 -2 q0 -4 -36 -12 l0 -22 l55 8 q19 0 28 -10 l0 -2 q0 -4 -9 -8 l-19 8 l-38 -8 l0 2 l-17 -4 l0 -56 l-6 -54 l-7 0 l0 4 l-2 0 l2 14 l0 54 l-2 32 l-4 0 q-57 -14 -85 -30 q-11 0 -19 14 l0 4 l17 -4 q65 24 91 28 l0 16 l-4 6 q-22 -10 -36 -10 q-17 2 -17 8 l4 4 l3 0 l2 -2 l2 2 l2 0 l2 -2 l2 0 q40 16 40 38 l0 2 l-4 4 l-17 -14 l-4 0 q-17 0 -19 14 l2 2 l2 0 l13 -4 q10 4 27 22 l0 32 l-12 12 l4 4 ZM144 142 l2 -14 l2 0 l17 18 l-6 6 q-12 0 -15 -10 Z" /><glyph glyph-name="" unicode="&#x5934;" d="M126 186 l2 0 q19 0 19 -43 l-4 -63 l2 0 q43 12 57 12 q10 -3 17 -14 l0 -2 l-4 -5 l-15 0 l-8 9 q-55 0 -62 -43 q-25 -38 -50 -42 l0 6 q42 29 42 49 l0 4 l-2 0 q-58 -31 -68 -31 q-14 5 -15 10 l2 2 l0 2 l11 -2 l2 0 q78 32 78 45 q7 26 7 68 q0 29 -15 29 l0 5 l4 4 ZM120 150 q9 -4 10 -9 l0 -4 q0 -6 -17 -8 l-2 2 l0 2 l2 2 l0 2 l-6 0 l-8 -2 q-13 4 -13 8 l34 7 ZM116 107 q9 -4 10 -8 l0 -2 l-15 -15 l-2 0 q-4 0 -4 10 l-17 -2 q-13 2 -13 7 l0 4 l2 0 l7 -2 l32 8 ZM164 40 q47 -21 47 -51 l-6 -5 l-3 0 q-9 0 -10 22 q-12 15 -30 29 l2 2 l0 3 Z" /><glyph glyph-name="" unicode="&#x6c49;" d="M56 172 q18 0 30 -15 l0 -2 l-4 -4 l-4 0 q-18 17 -22 17 l0 4 ZM158 155 q4 0 14 -21 l-32 -60 q84 -32 84 -59 l0 -4 q0 -4 -6 -4 q-12 0 -24 27 q-28 18 -64 28 q-26 -28 -42 -28 q-12 0 -18 15 l-4 0 q-14 -47 -22 -51 l-6 0 q-6 2 -6 13 l0 19 q16 18 16 34 q-16 21 -16 38 q2 13 6 13 l4 0 l-4 -13 q0 -6 20 -36 l0 -13 l2 0 q12 24 54 79 q0 3 22 10 q12 13 22 13 ZM152 142 q-18 -17 -38 -21 l-28 -38 l0 -2 l44 -5 q16 25 30 64 l-8 2 ZM72 53 q8 0 8 -6 l2 -2 l4 0 q32 10 32 23 l-2 0 l-26 4 q-20 -7 -20 -19 l2 0 Z" /><glyph glyph-name="" unicode="&#x5b81;" d="M93 182 l4 0 l21 -12 l5 -17 l-2 -2 l-7 0 q-4 0 -4 10 q-17 13 -17 21 ZM178 161 q19 0 32 -19 l0 -4 q0 -4 -53 -15 l0 2 q0 6 36 19 l0 2 l-15 7 q-50 -11 -96 -32 l-8 -2 l-2 0 l-11 6 l-2 -15 l2 -2 l0 -2 q-2 -23 -8 -23 l-7 6 l5 30 l0 11 l-5 6 l0 4 l5 0 q8 -4 8 -10 l7 2 l10 -2 q48 22 102 31 ZM176 100 l4 -7 l0 -2 q0 -3 -30 -8 l-2 0 l-2 2 l-13 -4 q13 -26 13 -53 q-17 -60 -23 -60 l-5 7 q15 51 15 65 l0 5 q0 14 -10 31 l-34 -19 l-4 0 l-7 7 l0 2 q0 12 13 19 l2 0 l0 -6 l-2 -3 l0 -2 l4 0 q47 26 81 26 Z" /><glyph glyph-name="" unicode="&#x7a74;" d="M96 168 l2 0 q32 -12 32 -20 l0 -8 l-4 -4 l-2 0 q-4 0 -4 6 q-12 10 -20 10 l-4 14 l0 2 ZM164 130 q34 0 42 -18 l0 -4 q0 -4 -38 -16 l-18 -14 l-6 0 l0 2 l38 32 q0 6 -16 6 q-30 -6 -72 -30 l-12 -4 q-14 4 -16 12 l2 2 l0 2 l18 -4 q32 18 78 34 ZM54 110 q10 -6 10 -46 l-6 -4 l-6 6 l2 32 l-4 10 l2 2 l2 0 ZM146 60 l2 0 q44 -22 44 -50 l0 -2 l-4 -4 l-4 0 q-10 8 -20 32 q-18 12 -24 20 l6 4 ZM90 58 l6 -8 q0 -12 -38 -48 l-6 0 l0 4 q34 38 34 50 l2 2 l2 0 Z" /><glyph glyph-name="" unicode="&#x8ba9;" d="M71 164 l4 0 q23 -4 23 -12 l0 -2 l-4 -4 l-7 0 q-11 10 -21 10 l0 2 l5 6 ZM147 158 q19 -2 19 -18 l0 -22 l2 0 l28 12 l2 -2 l0 -8 q0 -4 -32 -12 l0 -16 l-2 -26 l6 -2 l13 2 l6 -2 l19 2 l5 0 q23 -6 23 -22 l-4 -4 l-9 0 q-16 14 -38 14 q-34 -6 -70 -20 l-6 0 l-11 8 l-21 -36 l-4 0 q-9 2 -9 22 q6 0 11 60 l-2 0 q-5 0 -28 -18 l-13 -2 l-2 0 l-10 8 l0 2 l4 4 l6 -6 l7 0 l40 30 l2 2 l2 0 q9 -2 9 -8 l-11 -64 l40 56 l0 -4 q0 -6 -17 -34 l0 -6 l11 -2 l40 16 l-2 6 l4 18 l0 20 l2 2 l-2 2 l0 26 q-1 14 -12 14 l0 4 l4 4 Z" /><glyph glyph-name="" unicode="&#x793c;" d="M102 176 q10 -3 10 -6 l0 -2 l-6 -7 q-36 4 -36 9 l0 2 l2 0 l30 4 ZM136 161 l8 0 l6 -6 l-8 -85 q2 -27 10 -27 l30 0 q50 3 50 21 l0 32 l4 4 q6 -26 6 -57 q-38 -13 -70 -13 l-2 0 q-38 0 -38 34 l0 4 l8 85 l-4 8 ZM94 123 l4 0 l8 -6 l0 -2 l-10 -15 l2 -2 l0 -9 l-2 -2 l0 -2 l6 0 q0 6 18 19 l0 -4 q-26 -36 -26 -42 l4 -62 l-2 -2 l-4 0 l-8 11 l2 8 l-2 34 l-22 -28 l-2 0 l-6 7 l0 6 q0 8 30 68 l0 2 q-50 -36 -64 -36 l-6 2 l0 4 q20 0 80 51 ZM82 77 l-12 -28 l16 19 l0 4 l-4 5 Z" /><glyph glyph-name="" unicode="&#x8bad;" d="M211 180 l6 0 q13 -7 13 -13 l-2 -2 l0 -2 l2 -9 l-2 0 l2 -2 l0 -2 l-2 -2 l0 -2 l2 -11 l-2 -8 l2 -7 l-2 -10 l2 -53 q-2 -47 -7 -47 l2 -2 q-8 -38 -14 -38 l-3 6 q9 49 9 108 l-2 2 l0 3 l2 8 l0 2 l-2 7 l2 10 l0 42 q0 12 -11 13 l0 4 l5 5 ZM86 169 l4 0 q16 0 19 -8 l0 -7 l-7 -6 l-2 0 q-4 0 -4 10 l-10 9 l0 2 ZM177 139 l4 0 l8 -8 q-6 -26 -6 -62 l0 -4 l2 -10 l-6 -5 l-2 0 l-7 9 q3 63 7 63 l-5 13 l5 4 ZM139 135 q9 -3 14 -13 l0 -33 q-4 -4 -8 -34 l2 -9 l-2 -2 l-6 0 q-4 0 -7 11 l9 48 l0 11 q0 7 -7 15 l0 2 l5 4 ZM98 118 l2 0 l7 -6 q-1 -6 -13 -15 l2 -11 l0 -14 l-6 -24 q28 41 38 49 l0 -2 l-19 -38 q-20 -38 -23 -38 l-3 0 l-6 6 l0 21 q11 19 11 34 l-7 17 l-40 -28 q-15 4 -15 9 l0 2 l4 4 l9 -6 l59 40 Z" /><glyph glyph-name="" unicode="&#x5fc5;" d="M147 154 q15 -2 15 -8 l0 -6 q-8 -30 -51 -98 q14 -10 34 -12 q12 0 21 6 l-13 24 l0 6 l3 0 q7 -4 25 -34 l0 -4 q0 -8 -36 -8 l-6 0 q-17 0 -38 12 l0 -2 l-15 -14 l-5 0 l-4 4 q15 12 19 22 q-6 30 -12 36 l2 2 l2 0 q13 -8 13 -18 l6 -6 q23 26 46 86 l0 2 l-6 2 l-6 -2 l-2 2 l0 2 q0 4 8 6 ZM96 146 l2 -2 l-2 -10 l0 -12 l7 0 l19 16 l2 -2 l2 0 q-3 -10 -21 -28 l-9 0 l-8 8 l0 12 q4 18 8 18 ZM177 92 l4 0 q40 -6 40 -30 l0 -2 l-6 -4 q-7 0 -19 20 q-17 10 -19 16 ZM43 64 l2 -2 l0 -18 l2 0 q8 8 15 8 l0 -4 q-5 -14 -12 -16 l-9 0 l-6 6 q0 26 8 26 Z" /><glyph glyph-name="" unicode="&#x8bb0;" d="M62 166 l24 0 l8 -6 l0 -4 l-6 -4 l-2 0 q-24 10 -24 14 ZM162 152 q18 -2 18 -8 q0 -6 -20 -36 l8 -8 l0 -2 l-26 -14 q-12 0 -12 -32 l-4 0 q0 -28 30 -28 l30 0 q40 0 46 18 l8 44 l4 0 l0 -10 l4 -40 q0 -16 -56 -24 l-34 0 q-40 8 -40 20 l0 4 l2 56 l2 2 l2 0 l12 -2 q24 26 30 46 l-4 0 l-28 -16 l-16 -14 l0 2 q0 16 44 42 ZM74 112 l4 0 l6 -6 l0 -4 q0 -14 -4 -14 l2 -2 l-10 -48 l4 0 q0 12 38 64 l2 0 l0 -2 q-20 -30 -42 -94 l-2 -2 l-4 0 q-8 0 -12 28 q12 6 14 60 q-10 0 -40 -26 l-10 -2 l-4 0 l-8 10 l0 2 l4 4 l4 -4 l2 0 q10 0 56 36 Z" /><glyph glyph-name="" unicode="&#x6c38;" d="M109 204 q19 -4 19 -8 l0 -6 l-4 -4 l-4 0 q-8 6 -15 6 l-4 0 l-11 -2 l-2 2 l0 4 l21 8 ZM181 170 l4 -6 l0 -6 q-7 -16 -65 -72 l0 -4 q65 -42 114 -42 l9 -2 l2 -2 l0 -2 l-5 -4 l-12 0 l-2 2 l-3 -2 q-47 0 -101 42 l-2 0 l0 -20 l-3 -2 l5 -26 l-2 0 l2 -2 l0 -2 l-2 -4 l2 -2 l0 -6 l-2 -2 l2 -2 l0 -2 q-2 -36 -11 -36 q-6 0 -10 26 q-5 0 -9 12 l2 2 l2 0 l13 -10 l0 60 l-2 12 l2 6 q-11 0 -11 8 l-2 0 l-36 -70 l-6 8 l19 64 l-2 0 q-34 -32 -47 -32 l-4 0 q-9 4 -9 16 l7 0 l0 -4 l4 0 q10 0 57 40 l7 0 q4 0 4 -6 l-6 -20 l25 32 l0 18 l2 20 l-38 -14 l-2 0 l-4 4 l42 24 l11 0 q4 0 4 -8 l-4 -26 l0 -2 l2 0 l17 14 l0 -2 l-19 -24 l0 -12 l4 0 q49 46 49 60 l-2 0 l-20 -12 l-2 0 q15 20 32 20 Z" /></font>
</defs>
</svg>
